<?xml version="1.0" encoding="UTF-8" standalone="no"?>
<svg
   xmlns:dc="http://purl.org/dc/elements/1.1/"
   xmlns:cc="http://creativecommons.org/ns#"
   xmlns:rdf="http://www.w3.org/1999/02/22-rdf-syntax-ns#"
   xmlns:svg="http://www.w3.org/2000/svg"
   xmlns="http://www.w3.org/2000/svg"
   xmlns:sodipodi="http://sodipodi.sourceforge.net/DTD/sodipodi-0.dtd"
   xmlns:inkscape="http://www.inkscape.org/namespaces/inkscape"
   version="1.1"
   id="Layer_4_1_"
   x="0px"
   y="0px"
   viewBox="0 0 512 512"
   xml:space="preserve"
   sodipodi:docname="1x_Digital_Threat.svg"
   inkscape:version="1.0.1 (3bc2e813f5, 2020-09-07)"
   width="512"
   height="512"><metadata
   id="metadata35"><rdf:RDF><cc:Work
       rdf:about=""><dc:format>image/svg+xml</dc:format><dc:type
         rdf:resource="http://purl.org/dc/dcmitype/StillImage" /><dc:title></dc:title></cc:Work></rdf:RDF></metadata><defs
   id="defs33" /><sodipodi:namedview
   pagecolor="#ffffff"
   bordercolor="#666666"
   borderopacity="1"
   objecttolerance="10"
   gridtolerance="10"
   guidetolerance="10"
   inkscape:pageopacity="0"
   inkscape:pageshadow="2"
   inkscape:window-width="1366"
   inkscape:window-height="705"
   id="namedview31"
   showgrid="false"
   inkscape:zoom="0.45439189"
   inkscape:cx="-39.337737"
   inkscape:cy="276.97571"
   inkscape:window-x="-8"
   inkscape:window-y="-8"
   inkscape:window-maximized="1"
   inkscape:current-layer="Layer_4_1_" />
<style
   type="text/css"
   id="style2">
	.st0{fill:#241C1C;}
	.st1{fill:#EBE19D;}
</style>









<g
   id="g873"
   transform="matrix(13.518006,0,0,13.518006,5.240997,7.2686934)"><path
     class="st0"
     d="m 35.8,22.8 v -5 -1.4 -11.6 c 0,-2 -1.6,-3.7 -3.7,-3.7 H 8.5 c -2,0 -3.7,1.6 -3.7,3.7 v 11.6 1.4 2.9 H 3 v 11.8 h 1 v 1.7 l 0.5,0.3 V 28 C 4.5,26.9 5.1,26 6,25.6 L 6.5,4.8 C 6.5,3.3 7.7,2.1 9.2,2.1 h 22.2 c 1.5,0 2.7,1.2 2.7,2.7 l 0.5,20.8 c 0.9,0.5 1.5,1.4 1.5,2.4 v 6.5 l 0.5,-0.3 v -7 z"
     id="path4"
     style="fill:#273839;fill-opacity:1" /><path
     class="st0"
     d="m 1.6,22.6 h 0.5 c 0.2,0 0.4,-0.2 0.4,-0.4 V 21 C 2.5,20.8 2.3,20.6 2.1,20.6 H 1.6 c -0.2,0 -0.4,0.2 -0.4,0.4 v 0.5 l -0.7,0.6 v 9 l 0.7,0.6 v 0.6 c 0,0.2 0.2,0.4 0.4,0.4 h 0.5 c 0.2,0 0.4,-0.2 0.4,-0.4 V 31.1 C 2.5,30.9 2.3,30.7 2.1,30.7 H 1.6 c -0.2,0 -0.4,0.2 -0.4,0.4 V 29 c 0,0.2 0.2,0.4 0.4,0.4 h 0.5 c 0.2,0 0.4,-0.2 0.4,-0.4 V 27.8 C 2.5,27.6 2.3,27.4 2.1,27.4 H 1.6 c -0.2,0 -0.4,0.2 -0.4,0.4 v -2.6 c 0,0.2 0.2,0.4 0.4,0.4 h 0.5 c 0.2,0 0.4,-0.2 0.4,-0.4 V 24 C 2.5,23.8 2.3,23.6 2.1,23.6 H 1.6 c -0.2,0 -0.4,0.2 -0.4,0.4 v -2 c -0.1,0.4 0.1,0.6 0.4,0.6 z"
     id="path6"
     style="fill:#273839;fill-opacity:1" /><path
     class="st0"
     d="M 32,28.1 H 8.6 c -0.5,0 -1,0.4 -1,1 v 1.4 h 25.5 v -1.4 c -0.1,-0.6 -0.5,-1 -1.1,-1 z"
     id="path8"
     style="fill:#273839;fill-opacity:1" /><path
     class="st0"
     d="m 33.8,26.2 c -0.1,0 -0.1,0 -0.2,-0.1 -0.1,0 -0.2,0 -0.4,0 H 7.3 c -0.1,0 -0.3,0 -0.4,0 -0.1,0 -0.2,0.1 -0.4,0.1 v 0 c -0.7,0.3 -1.1,1 -1.1,1.7 v 7.8 c 0.3,0 1,0 2.1,0 1.9,0 2.6,-1.6 2.6,-1.6 h 10.1 10.1 c 0,0 0.7,1.6 2.6,1.6 1.2,0 1.8,0 2.1,0 V 28 c 0.2,-0.8 -0.4,-1.5 -1.2,-1.8 z m 0.1,4.3 c 0,0.5 -0.4,0.9 -0.9,0.9 H 7.6 C 7.1,31.4 6.7,31 6.7,30.5 v -1.4 c 0,-1 0.9,-1.9 1.9,-1.9 H 32 c 1,0 1.9,0.9 1.9,1.9 z"
     id="path10"
     style="fill:#273839;fill-opacity:1" /><path
     class="st0"
     d="M 33.7,24.2 31.5,20.7 33.7,22.1 33.2,4.8 C 33.2,3.8 32.4,3 31.4,3 H 9.2 C 8.2,3 7.4,3.8 7.4,4.8 L 7,22.1 9.2,20.7 7,24.2 v 1 c 0.1,0 0.3,0 0.4,0 h 25.9 c 0.1,0 0.3,0 0.4,0 z M 31,12.6 v 1 1.5 l -1.5,4.5 H 20.3 11.1 L 9.6,15.1 v -1.5 -1 -6.5 C 9.6,5.3 10.2,4.7 11,4.7 h 18.6 c 0.8,0 1.4,0.6 1.4,1.4 z"
     id="path12"
     style="fill:#273839;fill-opacity:1" /><circle
     class="st1"
     cx="20.299999"
     cy="11.7"
     r="0.80000001"
     id="circle14" /><rect
     x="12.9"
     y="11.5"
     class="st1"
     width="3.7"
     height="0.30000001"
     id="rect16" /><rect
     x="20.200001"
     y="15.3"
     class="st1"
     width="0.30000001"
     height="3.7"
     id="rect18" /><g
     id="g26">
	<path
   class="st1"
   d="m 15.3,10.6 c 0.5,-2.3 2.6,-4.1 5,-4.1 2.4,0 4.5,1.7 5,4.1 h 0.9 c -0.5,-2.8 -3,-5 -5.9,-5 -3,0 -5.4,2.2 -5.9,5 z"
   id="path20" />
	<path
   class="st1"
   d="m 19.2,16.7 c -2,-0.4 -3.5,-2 -4,-4 h -0.9 c 0.4,2.5 2.4,4.4 4.9,4.9 z"
   id="path22" />
	<path
   class="st1"
   d="m 25.3,12.7 c -0.4,2 -2,3.5 -4,4 v 0.9 c 2.5,-0.4 4.4,-2.4 4.9,-4.9 z"
   id="path24" />
</g><rect
     x="24"
     y="11.5"
     class="st1"
     width="3.7"
     height="0.30000001"
     id="rect28" /></g>
</svg>
