<?xml version="1.0" encoding="UTF-8" standalone="no"?>
<!-- Generator: Adobe Illustrator 22.1.0, SVG Export Plug-In . SVG Version: 6.00 Build 0)  -->

<svg
   version="1.1"
   id="Layer_4_1_"
   x="0px"
   y="0px"
   viewBox="0 0 512 512"
   xml:space="preserve"
   sodipodi:docname="1x_Holo.svg"
   width="512"
   height="512"
   inkscape:version="1.1 (c68e22c387, 2021-05-23)"
   xmlns:inkscape="http://www.inkscape.org/namespaces/inkscape"
   xmlns:sodipodi="http://sodipodi.sourceforge.net/DTD/sodipodi-0.dtd"
   xmlns="http://www.w3.org/2000/svg"
   xmlns:svg="http://www.w3.org/2000/svg"><defs
   id="defs15" /><sodipodi:namedview
   id="namedview13"
   pagecolor="#ffffff"
   bordercolor="#666666"
   borderopacity="1.0"
   inkscape:pageshadow="2"
   inkscape:pageopacity="0.0"
   inkscape:pagecheckerboard="0"
   showgrid="false"
   inkscape:zoom="0.43243243"
   inkscape:cx="107.53125"
   inkscape:cy="-17.34375"
   inkscape:window-width="1366"
   inkscape:window-height="697"
   inkscape:window-x="-8"
   inkscape:window-y="-8"
   inkscape:window-maximized="1"
   inkscape:current-layer="Layer_4_1_" />
<style
   type="text/css"
   id="style2">
	.st0{fill:#241C1C;}
	.st1{fill:#F60000;}
	.st2{fill:#0AF0F0;}
</style>



<g
   id="g969"
   transform="matrix(13.593323,0,0,13.593315,4.5235186,5.2033425)"><path
     class="st0"
     d="m 31.3,29.3 c -0.1,0 -0.1,0 0,0 -3.2,3.4 -7.7,5.5 -12.8,5.5 -5.1,0 -9.5,-2.1 -12.7,-5.5 0,0 0,0 0,0 0,1 -1.2,2.1 -2,2.8 -0.6,0.5 -0.9,1.2 -0.9,1.9 v 1.8 c 0,0.3 0.3,0.6 0.6,0.6 h 15.1 15.1 c 0.3,0 0.6,-0.3 0.6,-0.6 V 34 c 0,-0.7 -0.3,-1.4 -0.9,-1.9 -1,-0.6 -2.2,-1.8 -2.1,-2.8 z"
     id="path4"
     style="fill:#273839;fill-opacity:1" /><path
     class="st0"
     d="M 18.5,0.5 C 9.3,0.5 1.8,8 1.8,17.2 1.8,26.5 9.3,34 18.5,34 27.7,34 35.2,26.5 35.2,17.3 35.2,8 27.7,0.5 18.5,0.5 Z M 32.6,20.4 C 31.3,26.1 26.7,30.5 20.9,31.5 L 20,30.5 H 18.6 18.3 17 l -0.9,1 C 10.3,30.5 5.7,26.1 4.4,20.4 l 1,-0.9 V 17.8 H 4.1 c 0,-0.2 0,-0.4 0,-0.5 0,-0.2 0,-0.4 0,-0.5 h 1.3 v -1.7 l -1,-0.9 c 1.2,-5.5 5.5,-9.8 11,-11 l 0.9,1 H 18 V 2.8 c 0.2,0 0.4,0 0.5,0 0.1,0 0.4,0 0.5,0 v 1.3 h 1.7 l 0.9,-1 c 5.5,1.2 9.8,5.5 11,11 l -1,0.9 v 1.7 h 1.3 c 0,0.2 0,0.4 0,0.5 0,0.2 0,0.4 0,0.5 h -1.3 v 1.7 z"
     id="path6"
     style="fill:#273839;fill-opacity:1" /><path
     class="st1"
     d="m 21.4,17 h -0.5 c -0.1,-1.2 -1,-2.1 -2.2,-2.2 v -0.5 h -0.4 v 0.5 c -1.2,0.1 -2.1,1 -2.2,2.2 h -0.5 v 0.4 h 0.5 c 0.1,1.2 1,2.1 2.2,2.2 v 0.5 h 0.4 v -0.5 c 1.2,-0.1 2.1,-1 2.2,-2.2 h 0.5 z m -2.9,2.2 c -1.1,0 -2,-0.9 -2,-2 0,-1.1 0.9,-2 2,-2 1.1,0 2,0.9 2,2 0,1.1 -0.9,2 -2,2 z"
     id="path8" /><path
     class="st2"
     d="m 16.1,31.5 0.9,-1 h 1.4 0.3 1.3 l 0.9,1 c 5.8,-1 10.4,-5.4 11.7,-11.1 L 31.8,19.7 C 30.6,25.5 25.1,30 18.5,30 11.9,30 6.4,25.6 5.2,19.7 l -0.8,0.7 c 1.2,5.7 5.9,10.1 11.7,11.1 z"
     id="path10" /></g>
</svg>
