<?xml version="1.0" encoding="UTF-8" standalone="no"?>
<!-- Generator: Adobe Illustrator 22.1.0, SVG Export Plug-In . SVG Version: 6.00 Build 0)  -->

<svg
   version="1.1"
   id="Layer_4_1_"
   x="0px"
   y="0px"
   viewBox="0 0 512 512"
   xml:space="preserve"
   sodipodi:docname="1x_HCOG_Classic.svg"
   width="512"
   height="512"
   inkscape:version="1.1 (c68e22c387, 2021-05-23)"
   xmlns:inkscape="http://www.inkscape.org/namespaces/inkscape"
   xmlns:sodipodi="http://sodipodi.sourceforge.net/DTD/sodipodi-0.dtd"
   xmlns="http://www.w3.org/2000/svg"
   xmlns:svg="http://www.w3.org/2000/svg"><defs
   id="defs21" /><sodipodi:namedview
   id="namedview19"
   pagecolor="#ffffff"
   bordercolor="#666666"
   borderopacity="1.0"
   inkscape:pageshadow="2"
   inkscape:pageopacity="0.0"
   inkscape:pagecheckerboard="0"
   showgrid="false"
   inkscape:zoom="0.21621622"
   inkscape:cx="-321.4375"
   inkscape:cy="737.6875"
   inkscape:window-width="1366"
   inkscape:window-height="697"
   inkscape:window-x="-8"
   inkscape:window-y="-8"
   inkscape:window-maximized="1"
   inkscape:current-layer="Layer_4_1_" />
<style
   type="text/css"
   id="style2">
	.st0{fill:#F60000;}
	.st1{fill:#483737;}
	.st2{fill:#241C1C;}
</style>






<g
   id="g1016"
   transform="matrix(13.736187,0,0,13.736187,2.3846691,2.5672268)"><circle
     class="st0"
     cx="18.5"
     cy="16"
     r="1.8"
     id="circle4" /><path
     class="st1"
     d="m 28.2,25.6 c -1.4,0 -2.8,0.4 -4,1 L 22,27.8 c -1,0.5 -2.1,0.8 -3.2,0.8 H 18.5 18.2 C 17.1,28.6 16,28.3 15,27.8 l -2.1,-1.2 c -1.2,-0.7 -2.6,-1 -4,-1 H 8.3 l 0.1,1.6 h 0.5 c 1.1,0 2.2,0.3 3.2,0.8 l 2.1,1.2 c 1.2,0.7 2.6,1 4,1 h 0.3 0.3 c 1.4,0 2.8,-0.4 4,-1 L 24.9,28 c 1,-0.5 2.1,-0.8 3.2,-0.8 h 0.5 l 0.1,-1.6 z"
     id="path6"
     style="fill:#4b5354;fill-opacity:1" /><path
     class="st2"
     d="M 5.7,3.6 4,5.1 C 3,6.1 2.4,7.4 2.4,8.8 v 11.9 c 0,1 -0.2,1.9 -0.5,2.9 -0.1,0.4 -0.2,0.8 -0.2,1.2 v 2.6 L 5.6,23.5 5.1,22.8 V 13 L 5.4,12.5 H 5.3 C 4.8,12.5 4.4,12.1 4.4,11.6 V 8.3 C 4.4,7.8 4.8,7.4 5.3,7.4 H 5.6 L 5.2,7 V 6.3 L 6.8,4.7 Z"
     id="path8"
     style="fill:#273839;fill-opacity:1" /><path
     class="st0"
     d="M 6.2,12 H 5.1 C 4.9,12 4.8,11.9 4.8,11.7 V 8.1 C 4.8,7.9 4.9,7.8 5.1,7.8 h 1.1 c 0.2,0 0.3,0.1 0.3,0.3 v 3.6 C 6.5,11.9 6.4,12 6.2,12 Z"
     id="path10" /><path
     class="st2"
     d="m 35.9,30.2 -5.4,-5.4 -0.8,1.2 -0.1,1.5 c 0,0.4 -0.4,0.7 -0.8,0.7 h -0.7 c -1,0 -1.9,0.2 -2.8,0.7 l -2,1.1 c -1.4,0.8 -2.9,1.2 -4.5,1.2 h -0.3 -0.3 c -1.6,0 -3.1,-0.4 -4.5,-1.2 L 11.6,28.8 C 10.8,28.3 9.8,28.1 8.8,28.1 H 8.2 C 7.8,28.1 7.4,27.8 7.4,27.4 L 7.3,26 6.5,24.8 1.1,30.2 c -0.2,0.2 -0.4,0.6 -0.4,0.9 v 1 c 0,0.7 0.5,1.2 1.2,1.2 H 18.4 35 c 0.7,0 1.2,-0.5 1.2,-1.2 v -1 c 0.1,-0.3 -0.1,-0.6 -0.3,-0.9 z"
     id="path12"
     style="fill:#273839;fill-opacity:1" /><path
     class="st2"
     d="M 31.3,3.6 33,5.1 c 1,0.9 1.6,2.3 1.6,3.6 v 11.9 c 0,1 0.2,1.9 0.5,2.9 0.1,0.4 0.2,0.8 0.2,1.2 v 2.6 l -3.9,-3.9 0.5,-0.7 V 13 l -0.3,-0.5 h 0.3 c 0.5,0 0.9,-0.4 0.9,-0.9 V 8.3 C 32.8,7.8 32.4,7.4 31.9,7.4 H 31.6 L 31.8,7 V 6.3 L 30.2,4.7 Z"
     id="path14"
     style="fill:#273839;fill-opacity:1" /><path
     class="st0"
     d="m 30.8,12 h 1.1 c 0.2,0 0.3,-0.1 0.3,-0.3 V 8.1 c 0,-0.2 -0.1,-0.3 -0.3,-0.3 h -1.1 c -0.2,0 -0.3,0.1 -0.3,0.3 v 3.6 c 0,0.2 0.1,0.3 0.3,0.3 z"
     id="path16" /></g>
</svg>
