<?xml version="1.0" encoding="UTF-8" standalone="no"?>
<!-- Generator: Adobe Illustrator 22.1.0, SVG Export Plug-In . SVG Version: 6.00 Build 0)  -->

<svg
   version="1.1"
   id="Layer_4_1_"
   x="0px"
   y="0px"
   viewBox="0 0 512 512"
   xml:space="preserve"
   sodipodi:docname="2x_HCOG_Bruiser.svg"
   width="512"
   height="512"
   inkscape:version="1.1 (c68e22c387, 2021-05-23)"
   xmlns:inkscape="http://www.inkscape.org/namespaces/inkscape"
   xmlns:sodipodi="http://sodipodi.sourceforge.net/DTD/sodipodi-0.dtd"
   xmlns="http://www.w3.org/2000/svg"
   xmlns:svg="http://www.w3.org/2000/svg"><defs
   id="defs19" /><sodipodi:namedview
   id="namedview17"
   pagecolor="#ffffff"
   bordercolor="#666666"
   borderopacity="1.0"
   inkscape:pageshadow="2"
   inkscape:pageopacity="0.0"
   inkscape:pagecheckerboard="0"
   showgrid="false"
   inkscape:zoom="0.43243243"
   inkscape:cx="-3.46875"
   inkscape:cy="211.59375"
   inkscape:window-width="1366"
   inkscape:window-height="697"
   inkscape:window-x="-8"
   inkscape:window-y="-8"
   inkscape:window-maximized="1"
   inkscape:current-layer="Layer_4_1_" />
<style
   type="text/css"
   id="style2">
	.st0{fill:#F60000;}
	.st1{fill:#241C1C;}
</style>





<g
   id="g1245"
   transform="matrix(13.669468,0,0,13.669455,2.4313724,2.2568704)"><polygon
     class="st0"
     points="20.8,15.3 19.9,15.3 18.5,12.7 17.1,15.3 16.2,15.3 18.5,11.1 "
     id="polygon4" /><polygon
     class="st0"
     points="18.1,16.2 17.6,16.2 17.6,16.9 18.1,16.9 18.1,17.9 17.6,17.9 17.6,18.6 18.1,18.6 18.1,19.4 18.9,19.4 18.9,18.6 19.4,18.6 19.4,17.9 18.9,17.9 18.9,16.9 19.4,16.9 19.4,16.2 18.9,16.2 18.9,15.3 18.1,15.3 "
     id="polygon6" /><path
     class="st1"
     d="m 34.5,28 h -3.9 l -4.1,-5.4 h -4.1 l -0.7,-0.7 h -3.3 -3.3 l -0.7,0.7 H 10.3 L 6.4,28 H 2.5 v 1.8 l 1.7,1.6 -0.5,1.2 v 1.1 h 14.8 14.8 v -1.1 l -0.5,-1.2 1.7,-1.6 z m -3.4,3.9 c -0.2,0.3 -0.5,0.6 -0.9,0.6 H 6.8 C 6.4,32.5 6.1,32.3 5.9,31.9 5.7,31.6 5.8,31.1 6,30.8 l 0.5,-0.7 c 0.4,-0.5 1,-0.9 1.7,-0.9 h 20.6 c 0.7,0 1.3,0.3 1.7,0.9 l 0.5,0.7 c 0.2,0.4 0.3,0.8 0.1,1.1 z"
     id="path8"
     style="fill:#273839;fill-opacity:1" /><path
     class="st1"
     d="M 29.9,30.6 C 29.6,30.3 29.2,30.1 28.8,30.1 H 8.2 c -0.4,0 -0.8,0.2 -1.1,0.5 l -0.5,0.7 c -0.1,0.1 0,0.2 0,0.3 0,0 0.1,0.1 0.2,0.1 h 23.4 c 0.1,0 0.2,-0.1 0.2,-0.1 0,0 0.1,-0.1 0,-0.2 z"
     id="path10"
     style="fill:#273839;fill-opacity:1" /><path
     class="st1"
     d="M 4.2,20.7 C 4.1,20.5 4.1,20.2 4.1,19.9 V 8.7 C 4.1,8.2 4.3,7.8 4.6,7.4 L 5.7,6.1 C 6.1,5.7 6.2,5.1 6.2,4.6 6,4.2 6,4 5.9,3.8 5.7,3.4 5.3,3.3 4.9,3.6 L 2.3,5.7 C 1.3,6.5 0.7,7.8 0.7,9.1 v 9.7 c 0,4.3 2.1,7.9 2.1,7.9 H 5.9 L 7.1,25 C 5.4,23.4 4.5,21.5 4.2,20.7 Z M 4.5,25.1 2.8,22 C 2.3,21.2 2,20.3 2,19.4 V 9.7 C 2,8.2 2.3,6.8 3.5,5.9 L 3.7,6.1 3.5,6.8 C 3.1,7.5 2.9,8.2 2.9,9 v 10.6 c 0,0.7 0.1,1.3 0.4,1.9 l 1.4,3.4 z"
     id="path12"
     style="fill:#273839;fill-opacity:1" /><path
     class="st1"
     d="m 29.9,25 1.3,1.7 h 3.1 c 0,0 2.1,-3.6 2.1,-7.9 V 9.2 C 36.4,7.9 35.8,6.6 34.8,5.8 L 32.1,3.6 C 31.8,3.3 31.3,3.4 31.1,3.8 31,4 31,4.2 30.9,4.6 30.8,5.2 31,5.7 31.4,6.1 l 1.1,1.3 C 32.8,7.8 33,8.2 33,8.7 v 11.2 c 0,0.3 0,0.5 -0.1,0.8 -0.4,0.8 -1.3,2.7 -3,4.3 z m 2.3,-0.1 1.4,-3.4 C 33.9,20.9 34,20.2 34,19.6 V 9 C 34,8.2 33.8,7.5 33.5,6.8 L 33.1,6.1 33.3,5.9 c 1.2,0.9 1.5,2.4 1.5,3.9 v 9.6 c 0,0.9 -0.3,1.8 -0.8,2.6 l -1.6,3 z"
     id="path14"
     style="fill:#273839;fill-opacity:1" /></g>
</svg>
