<?xml version="1.0" encoding="UTF-8" standalone="no"?>
<!-- Generator: Adobe Illustrator 22.1.0, SVG Export Plug-In . SVG Version: 6.00 Build 0)  -->

<svg
   version="1.1"
   id="Layer_4_1_"
   x="0px"
   y="0px"
   viewBox="0 0 512 512"
   xml:space="preserve"
   sodipodi:docname="3x_HCOG_Ranger.svg"
   width="512"
   height="512"
   inkscape:version="1.1 (c68e22c387, 2021-05-23)"
   xmlns:inkscape="http://www.inkscape.org/namespaces/inkscape"
   xmlns:sodipodi="http://sodipodi.sourceforge.net/DTD/sodipodi-0.dtd"
   xmlns="http://www.w3.org/2000/svg"
   xmlns:svg="http://www.w3.org/2000/svg"><defs
   id="defs33" /><sodipodi:namedview
   id="namedview31"
   pagecolor="#ffffff"
   bordercolor="#666666"
   borderopacity="1.0"
   inkscape:pageshadow="2"
   inkscape:pageopacity="0.0"
   inkscape:pagecheckerboard="0"
   showgrid="false"
   inkscape:zoom="0.86486487"
   inkscape:cx="209.85937"
   inkscape:cy="252.64062"
   inkscape:window-width="1366"
   inkscape:window-height="697"
   inkscape:window-x="-8"
   inkscape:window-y="-8"
   inkscape:window-maximized="1"
   inkscape:current-layer="Layer_4_1_" />
<style
   type="text/css"
   id="style2">
	.st0{fill:#DA0000;}
	.st1{fill:#241C1C;}
</style>










<g
   id="g28">
	
	<g
   id="g1043"
   transform="matrix(13.782622,0,0,13.782621,0.9739024,1.021516)"><circle
     class="st0"
     cx="16"
     cy="12.3"
     r="1"
     id="circle4" /><polygon
     class="st1"
     points="5.3,33 7.8,33 9.1,32.2 15.6,32.2 16,32.2 22.9,32.2 24.2,33 26.7,33 26.7,31.9 25.2,30.4 16,30.4 15.6,30.4 6.8,30.4 5.3,31.9 "
     id="polygon6"
     style="fill:#273839;fill-opacity:1" /><rect
     x="7.9000001"
     y="24.4"
     class="st1"
     width="16.200001"
     height="2.5999999"
     id="rect8"
     style="fill:#273839;fill-opacity:1" /><path
     class="st1"
     d="m 22.9,20.9 v 0 H 17.7 V 20.4 H 16 v 0 h -1.7 v 0.5 H 9.1 l -1.2,1 v 1.9 H 24.1 V 21.9 Z M 9.4,23 10.2,22.3 h 11.6 l 0.8,0.7 z"
     id="path10"
     style="fill:#273839;fill-opacity:1" /><path
     class="st1"
     d="m 3.9,20.8 2.4,2.1 H 7.2 V 21.5 L 7.7,21.1 5.4,18.8 5.2,10.6 4.6,10.4 v -1 L 5.2,9.2 6.7,8 C 7.1,7.7 7.3,7.3 7.3,6.8 V 5 H 6.2 V 5 L 3.6,9.7 Z"
     id="path12"
     style="fill:#273839;fill-opacity:1" /><path
     class="st1"
     d="M 25.8,22.9 28.2,20.8 28.6,9.7 25.9,5 v 0 h -1.1 v 1.8 c 0,0.5 0.2,0.9 0.6,1.2 l 1.5,1.2 0.6,0.2 v 1 l -0.6,0.2 -0.2,8.2 -2.3,2.3 0.5,0.4 v 1.4 z"
     id="path14"
     style="fill:#273839;fill-opacity:1" /><polygon
     class="st1"
     points="28.8,21.1 26,23.6 24.8,23.6 24.8,23.7 24.8,24.1 24.8,27.7 7.2,27.7 7.2,24.1 7.2,23.7 7.2,23.6 6,23.6 3.3,21.1 2.9,9.6 5.9,4 4,4 0.8,9.1 0.8,22.3 6.8,29.7 16,29.7 16,29.7 25.2,29.7 31.3,22.3 31.3,9.1 28,4 26.2,4 29.2,9.6 29.2,9.7 "
     id="polygon16"
     style="fill:#273839;fill-opacity:1" /><polygon
     class="st0"
     points="14.7,18.8 14.1,18.8 14.8,20.2 16,20.2 16,20.2 17.2,20.2 17.9,18.8 17.4,18.8 17,19.5 16,19.5 15,19.5 "
     id="polygon18" /><polygon
     class="st0"
     points="24.2,9.9 24.5,10.4 25.3,9.1 24.7,8.1 24.7,8.1 24.1,7 22.6,7.1 22.9,7.6 23.6,7.6 24.1,8.4 24.6,9.3 "
     id="polygon20" /><polygon
     class="st0"
     points="9.1,7.6 9.4,7.1 7.9,7 7.3,8.1 7.3,8.1 6.7,9.1 7.5,10.4 7.8,9.9 7.4,9.3 7.9,8.4 8.4,7.6 "
     id="polygon22" /><path
     class="st1"
     d="m 32.9,11.4 c -0.6,0.3 -1,0.9 -1,1.7 v 7.4 c 0,0.7 0.4,1.4 1,1.7 z"
     id="path24"
     style="fill:#273839;fill-opacity:1" /><path
     class="st1"
     d="m 34.1,11.1 h -0.4 c -0.1,0 -0.3,0 -0.4,0 v 11.1 c 0.1,0 0.2,0 0.4,0 h 0.4 c 1.2,0 2.1,-1 2.1,-2.2 v -6.7 c 0.1,-1.2 -0.9,-2.2 -2.1,-2.2 z"
     id="path26"
     style="fill:#273839;fill-opacity:1" /></g>
</g>
</svg>
