<?xml version="1.0" encoding="UTF-8" standalone="no"?>
<!-- Generator: Adobe Illustrator 22.1.0, SVG Export Plug-In . SVG Version: 6.00 Build 0)  -->

<svg
   version="1.1"
   id="Layer_4_1_"
   x="0px"
   y="0px"
   viewBox="0 0 512 512"
   xml:space="preserve"
   sodipodi:docname="4x-8x_Variable_Sniper.svg"
   width="512"
   height="512"
   inkscape:version="1.1 (c68e22c387, 2021-05-23)"
   xmlns:inkscape="http://www.inkscape.org/namespaces/inkscape"
   xmlns:sodipodi="http://sodipodi.sourceforge.net/DTD/sodipodi-0.dtd"
   xmlns="http://www.w3.org/2000/svg"
   xmlns:svg="http://www.w3.org/2000/svg"><defs
   id="defs126" /><sodipodi:namedview
   id="namedview124"
   pagecolor="#ffffff"
   bordercolor="#666666"
   borderopacity="1.0"
   inkscape:pageshadow="2"
   inkscape:pageopacity="0.0"
   inkscape:pagecheckerboard="0"
   showgrid="false"
   inkscape:zoom="0.30577591"
   inkscape:cx="76.853668"
   inkscape:cy="466.02756"
   inkscape:window-width="1366"
   inkscape:window-height="697"
   inkscape:window-x="-8"
   inkscape:window-y="-8"
   inkscape:window-maximized="1"
   inkscape:current-layer="Layer_4_1_" />
<style
   type="text/css"
   id="style2">
	.st0{fill:#241C1C;}
	.st1{opacity:0.65;}
	.st2{fill:url(#SVGID_1_);}
	.st3{fill:#5C75AD;}
</style>















<g
   id="g1868"
   transform="matrix(13.555555,0,0,13.555556,5.2222243,5.222222)"><path
     class="st0"
     d="m 18.5,11.8 c -5.1,0 -9.3,4.2 -9.3,9.3 0,5.1 4.2,9.3 9.3,9.3 5.1,0 9.3,-4.2 9.3,-9.3 0,-5.1 -4.2,-9.3 -9.3,-9.3 z m 0,17.1 c -4.3,0 -7.8,-3.5 -7.8,-7.8 0,-4.3 3.5,-7.8 7.8,-7.8 4.3,0 7.8,3.5 7.8,7.8 0,4.3 -3.5,7.8 -7.8,7.8 z"
     id="path4"
     style="fill:#273839;fill-opacity:1" /><path
     class="st0"
     d="m 24.2,4.7 h -5.7 v 0 H 12.8 L 9.6,7.8 V 13 c 1,-1.1 2.3,-2.1 3.7,-2.7 v -3 c 0,-0.7 0.6,-1.2 1.2,-1.2 h 7.8 c 0.7,0 1.2,0.6 1.2,1.2 v 3 c 1.4,0.7 2.7,1.6 3.7,2.7 V 7.8 Z"
     id="path6"
     style="fill:#273839;fill-opacity:1" /><path
     class="st0"
     d="m 22.4,6.8 h -7.8 c -0.2,0 -0.4,0.2 -0.4,0.4 v 2.7 c 1.3,-0.5 2.8,-0.8 4.3,-0.8 1.5,0 3,0.3 4.3,0.8 V 7.2 C 22.8,7 22.6,6.8 22.4,6.8 Z"
     id="path8"
     style="fill:#273839;fill-opacity:1" /><path
     class="st0"
     d="M 29.7,21.2 C 29.7,15 24.7,10 18.5,10 12.3,10 7.3,15 7.3,21.2 c 0,4 2.1,7.5 5.3,9.5 v 2.5 l 0.9,0.5 -1.7,1.1 v 1.7 h 6.7 6.7 v -1.7 l -1.7,-1.1 0.9,-0.5 v -1.3 l 1.7,-0.7 v -1.3 c 0,-0.3 0.2,-0.6 0.6,-0.6 h 0.8 c 0,0 0.5,-0.8 2,-0.8 v -4.9 c 0.1,-0.7 0.2,-1.6 0.2,-2.4 z M 18.5,31.6 c -5.8,0 -10.4,-4.7 -10.4,-10.4 0,-5.8 4.7,-10.4 10.4,-10.4 5.7,0 10.4,4.7 10.4,10.4 0,5.7 -4.6,10.4 -10.4,10.4 z"
     id="path10"
     style="fill:#273839;fill-opacity:1" /><path
     class="st0"
     d="M 17.8,3.7 H 16.4 C 16.3,3.7 16.1,3.6 16.1,3.4 V 1.7 c 0,-0.1 0.1,-0.3 0.3,-0.3 h 1.4 c 0.1,0 0.3,0.1 0.3,0.3 v 1.8 c 0,0.1 -0.2,0.2 -0.3,0.2 z"
     id="path12"
     style="fill:#273839;fill-opacity:1" /><path
     class="st0"
     d="m 15.5,3.7 h -1 C 14.3,3.7 14.2,3.5 14.2,3.4 V 2 c 0,-0.2 0.2,-0.3 0.3,-0.3 h 1 c 0.2,0 0.3,0.2 0.3,0.3 v 1.4 c 0,0.2 -0.2,0.3 -0.3,0.3 z"
     id="path14"
     style="fill:#273839;fill-opacity:1" /><path
     class="st0"
     d="M 13.4,4 H 13 C 12.8,4 12.7,3.8 12.7,3.7 V 2.1 c 0,-0.2 0.2,-0.3 0.3,-0.3 h 0.4 c 0.2,0 0.3,0.2 0.3,0.3 V 3.6 C 13.8,3.8 13.6,4 13.4,4 Z"
     id="path16"
     style="fill:#273839;fill-opacity:1" /><path
     class="st0"
     d="M 24,4 H 23.6 C 23.4,4 23.3,3.8 23.3,3.7 V 2.1 c 0,-0.2 0.2,-0.3 0.3,-0.3 H 24 c 0.2,0 0.3,0.2 0.3,0.3 V 3.6 C 24.3,3.8 24.2,4 24,4 Z"
     id="path18"
     style="fill:#273839;fill-opacity:1" /><path
     class="st0"
     d="m 22.5,3.7 h -1 C 21.3,3.7 21.2,3.5 21.2,3.4 V 2 c 0,-0.2 0.2,-0.3 0.3,-0.3 h 1 c 0.2,0 0.3,0.2 0.3,0.3 v 1.4 c 0.1,0.2 -0.1,0.3 -0.3,0.3 z"
     id="path20"
     style="fill:#273839;fill-opacity:1" /><path
     class="st0"
     d="M 20.6,3.7 H 19.2 C 19.1,3.7 18.9,3.6 18.9,3.4 V 1.7 c 0,-0.1 0.1,-0.3 0.3,-0.3 h 1.4 c 0.1,0 0.3,0.1 0.3,0.3 v 1.8 c 0,0.1 -0.1,0.2 -0.3,0.2 z"
     id="path22"
     style="fill:#273839;fill-opacity:1" /><path
     class="st0"
     d="m 21.7,1.3 c 0,0 -1,-0.2 -3.2,-0.2 -2.2,0 -3.2,0.2 -3.2,0.2 L 15.2,1 c 0,0 1,-0.5 3.3,-0.5 2.3,0 3.3,0.4 3.3,0.5 z"
     id="path24"
     style="fill:#273839;fill-opacity:1" /><g
     id="g64">
	<rect
   x="31.1"
   y="14.3"
   class="st0"
   width="1.8"
   height="1.3"
   id="rect26"
   style="fill:#273839;fill-opacity:1" />
	<rect
   x="31.1"
   y="16.1"
   class="st0"
   width="1.8"
   height="1.3"
   id="rect28"
   style="fill:#273839;fill-opacity:1" />
	<rect
   x="31.1"
   y="10.5"
   class="st0"
   width="1.8"
   height="1.3"
   id="rect30"
   style="fill:#273839;fill-opacity:1" />
	<rect
   x="31.1"
   y="9.1000004"
   class="st0"
   width="1.8"
   height="0.80000001"
   id="rect32"
   style="fill:#273839;fill-opacity:1" />
	<rect
   x="31.1"
   y="12.4"
   class="st0"
   width="1.8"
   height="1.3"
   id="rect34"
   style="fill:#273839;fill-opacity:1" />
	<rect
   x="31.1"
   y="21.6"
   class="st0"
   width="1.8"
   height="0.69999999"
   id="rect36"
   style="fill:#273839;fill-opacity:1" />
	<path
   class="st0"
   d="m 31.1,7.4 h 1.6 C 32.5,7.1 32.1,6.8 31.7,6.8 h -0.6 z"
   id="path38"
   style="fill:#273839;fill-opacity:1" />
	<path
   class="st0"
   d="m 31.1,8.6 h 1.8 V 8.1 c 0,0 0,-0.1 0,-0.1 h -1.8 z"
   id="path40"
   style="fill:#273839;fill-opacity:1" />
	<rect
   x="31.1"
   y="19.9"
   class="st0"
   width="1.8"
   height="1.1"
   id="rect42"
   style="fill:#273839;fill-opacity:1" />
	<rect
   x="31.1"
   y="18"
   class="st0"
   width="1.8"
   height="1.3"
   id="rect44"
   style="fill:#273839;fill-opacity:1" />
	<path
   class="st0"
   d="M 30.3,7.4 V 6.8 h -0.5 c -0.4,0 -0.8,0.2 -1,0.6 z"
   id="path46"
   style="fill:#273839;fill-opacity:1" />
	<path
   class="st0"
   d="M 30.3,8.6 V 8 h -1.7 c 0,0 0,0.1 0,0.1 v 0.5 z"
   id="path48"
   style="fill:#273839;fill-opacity:1" />
	<rect
   x="31.1"
   y="22.799999"
   class="st0"
   width="1.8"
   height="0.60000002"
   id="rect50"
   style="fill:#273839;fill-opacity:1" />
	<rect
   x="28.5"
   y="9.1000004"
   class="st0"
   width="1.7"
   height="0.80000001"
   id="rect52"
   style="fill:#273839;fill-opacity:1" />
	<rect
   x="28.5"
   y="10.5"
   class="st0"
   width="1.7"
   height="1.3"
   id="rect54"
   style="fill:#273839;fill-opacity:1" />
	<rect
   x="28.5"
   y="12.4"
   class="st0"
   width="1.7"
   height="1.3"
   id="rect56"
   style="fill:#273839;fill-opacity:1" />
	<path
   class="st0"
   d="m 29.2,15.6 h 1.1 v -1.3 h -1.7 v 0.3 c 0.2,0.3 0.4,0.6 0.6,1 z"
   id="path58"
   style="fill:#273839;fill-opacity:1" />
	<path
   class="st0"
   d="m 30,17.5 h 0.3 v -1.3 h -0.9 c 0.2,0.4 0.4,0.8 0.6,1.3 z"
   id="path60"
   style="fill:#273839;fill-opacity:1" />
	<path
   class="st0"
   d="M 30.3,18.7 V 18 h -0.2 c 0.1,0.2 0.1,0.5 0.2,0.7 z"
   id="path62"
   style="fill:#273839;fill-opacity:1" />
</g><g
     id="g102">
	<rect
   x="4.0999999"
   y="14.3"
   class="st0"
   width="1.8"
   height="1.3"
   id="rect66"
   style="fill:#273839;fill-opacity:1" />
	<rect
   x="4.0999999"
   y="16.1"
   class="st0"
   width="1.8"
   height="1.3"
   id="rect68"
   style="fill:#273839;fill-opacity:1" />
	<rect
   x="4.0999999"
   y="10.5"
   class="st0"
   width="1.8"
   height="1.3"
   id="rect70"
   style="fill:#273839;fill-opacity:1" />
	<rect
   x="4.0999999"
   y="9.1000004"
   class="st0"
   width="1.8"
   height="0.80000001"
   id="rect72"
   style="fill:#273839;fill-opacity:1" />
	<rect
   x="4.0999999"
   y="12.4"
   class="st0"
   width="1.8"
   height="1.3"
   id="rect74"
   style="fill:#273839;fill-opacity:1" />
	<rect
   x="4.0999999"
   y="21.6"
   class="st0"
   width="1.8"
   height="0.69999999"
   id="rect76"
   style="fill:#273839;fill-opacity:1" />
	<path
   class="st0"
   d="M 5.9,7.4 H 4.3 C 4.5,7.1 4.9,6.8 5.3,6.8 h 0.6 z"
   id="path78"
   style="fill:#273839;fill-opacity:1" />
	<path
   class="st0"
   d="M 5.9,8.6 H 4.1 V 8.1 c 0,0 0,-0.1 0,-0.1 h 1.8 z"
   id="path80"
   style="fill:#273839;fill-opacity:1" />
	<rect
   x="4.0999999"
   y="19.9"
   class="st0"
   width="1.8"
   height="1.1"
   id="rect82"
   style="fill:#273839;fill-opacity:1" />
	<rect
   x="4.0999999"
   y="18"
   class="st0"
   width="1.8"
   height="1.3"
   id="rect84"
   style="fill:#273839;fill-opacity:1" />
	<path
   class="st0"
   d="M 6.7,7.4 V 6.8 h 0.5 c 0.4,0 0.8,0.2 1,0.6 z"
   id="path86"
   style="fill:#273839;fill-opacity:1" />
	<path
   class="st0"
   d="M 6.7,8.6 V 8 h 1.7 c 0,0 0,0.1 0,0.1 v 0.5 z"
   id="path88"
   style="fill:#273839;fill-opacity:1" />
	<rect
   x="6.6999998"
   y="9.1000004"
   class="st0"
   width="1.7"
   height="0.80000001"
   id="rect90"
   style="fill:#273839;fill-opacity:1" />
	<rect
   x="6.6999998"
   y="10.5"
   class="st0"
   width="1.7"
   height="1.3"
   id="rect92"
   style="fill:#273839;fill-opacity:1" />
	<rect
   x="6.6999998"
   y="12.4"
   class="st0"
   width="1.7"
   height="1.3"
   id="rect94"
   style="fill:#273839;fill-opacity:1" />
	<path
   class="st0"
   d="M 7.8,15.6 H 6.7 v -1.3 h 1.7 v 0.3 c -0.2,0.3 -0.4,0.6 -0.6,1 z"
   id="path96"
   style="fill:#273839;fill-opacity:1" />
	<path
   class="st0"
   d="M 7,17.5 H 6.7 V 16.2 H 7.6 C 7.4,16.6 7.2,17 7,17.5 Z"
   id="path98"
   style="fill:#273839;fill-opacity:1" />
	<path
   class="st0"
   d="M 6.7,18.7 V 18 h 0.2 c -0.1,0.2 -0.1,0.5 -0.2,0.7 z"
   id="path100"
   style="fill:#273839;fill-opacity:1" />
</g><g
     id="g108">
	<path
   class="st0"
   d="m 9.9,27.4 c -0.2,0.1 -0.4,0.2 -0.6,0.3 0.7,1 1.6,1.9 2.6,2.6 C 11.8,29 11,27.9 9.9,27.4 Z"
   id="path104"
   style="fill:#273839;fill-opacity:1" />
	<path
   class="st0"
   d="m 10.9,30.5 c 0,1.3 -1.1,2.4 -2.4,2.4 -1.3,0 -2.4,-1.1 -2.4,-2.4 0,-1.3 1.1,-2.4 2.4,-2.4 0.1,0 0.1,0 0.2,0 C 8.6,28 8.6,27.9 8.5,27.8 7.2,27.8 6.1,26.7 6.1,25.4 6.1,24.8 6.4,24.2 6.8,23.7 6.8,23.5 6.7,23.3 6.7,23.2 H 6.1 c -0.6,0 -1.1,1 -1.1,1.6 v 5.7 c 0,1.9 1.6,3.5 3.5,3.5 1.7,0 3.1,-1.2 3.4,-2.8 -0.4,-0.2 -0.7,-0.4 -1,-0.7 z"
   id="path106"
   style="fill:#273839;fill-opacity:1" />
</g><circle
     class="st0"
     cx="8.5"
     cy="30.5"
     r="1.7"
     id="circle110"
     style="fill:#273839;fill-opacity:1" /><g
     class="st1"
     id="g121">
	
		<radialGradient
   id="SVGID_1_"
   cx="-385.78519"
   cy="1009.1523"
   r="11.7546"
   gradientTransform="matrix(0.01370479,0.9999,1.9998,-0.02740959,-1994.2153,432.8723)"
   gradientUnits="userSpaceOnUse">
		<stop
   offset="0.2021"
   style="stop-color:#000000"
   id="stop112" />
		<stop
   offset="1"
   style="stop-color:#5C75AD"
   id="stop114" />
	</radialGradient>
	<path
   class="st2"
   d="m 18.5,28.5 c -4.1,0 -7.3,-3.2 -7.3,-7.3 0,-4.1 3.2,-7.3 7.3,-7.3 4.1,0 7.3,3.2 7.3,7.3 0,4.1 -3.2,7.3 -7.3,7.3 z"
   id="path117"
   style="fill:url(#SVGID_1_)" />
	<path
   class="st3"
   d="m 18.5,14.1 c 3.9,0 7,3.2 7,7 0,3.8 -3.2,7 -7,7 -3.8,0 -7,-3.2 -7,-7 0,-3.8 3.1,-7 7,-7 m 0,-0.4 c -4.1,0 -7.5,3.3 -7.5,7.5 0,4.2 3.3,7.5 7.5,7.5 4.2,0 7.5,-3.3 7.5,-7.5 0,-4.2 -3.4,-7.5 -7.5,-7.5 z"
   id="path119" />
</g></g>
</svg>
