<?xml version="1.0" encoding="UTF-8" standalone="no"?>
<!-- Generator: Adobe Illustrator 22.1.0, SVG Export Plug-In . SVG Version: 6.00 Build 0)  -->

<svg
   version="1.1"
   id="Layer_4_1_"
   x="0px"
   y="0px"
   viewBox="0 0 512 512"
   xml:space="preserve"
   sodipodi:docname="6x_Sniper.svg"
   width="512"
   height="512"
   inkscape:version="1.1 (c68e22c387, 2021-05-23)"
   xmlns:inkscape="http://www.inkscape.org/namespaces/inkscape"
   xmlns:sodipodi="http://sodipodi.sourceforge.net/DTD/sodipodi-0.dtd"
   xmlns="http://www.w3.org/2000/svg"
   xmlns:svg="http://www.w3.org/2000/svg"><defs
   id="defs62" /><sodipodi:namedview
   id="namedview60"
   pagecolor="#ffffff"
   bordercolor="#666666"
   borderopacity="1.0"
   inkscape:pageshadow="2"
   inkscape:pageopacity="0.0"
   inkscape:pagecheckerboard="0"
   showgrid="false"
   inkscape:zoom="0.30577591"
   inkscape:cx="103.01662"
   inkscape:cy="636.08674"
   inkscape:window-width="1366"
   inkscape:window-height="697"
   inkscape:window-x="-8"
   inkscape:window-y="-8"
   inkscape:window-maximized="1"
   inkscape:current-layer="Layer_4_1_" />
<style
   type="text/css"
   id="style2">
	.st0{opacity:0.65;}
	.st1{fill:url(#SVGID_1_);}
	.st2{fill:#EA992F;}
	.st3{fill:#241C1C;}
</style>






















<g
   id="g1180"
   transform="matrix(13.785311,0,0,13.785312,0.9717512,-1.0960609)"><g
     class="st0"
     id="g13">
	
		<radialGradient
   id="SVGID_1_"
   cx="18.611099"
   cy="16.711901"
   r="13.0293"
   gradientTransform="matrix(0.01370479,0.9999,-1.9998,0.02740959,51.7767,-2.3555)"
   gradientUnits="userSpaceOnUse">
		<stop
   offset="0.2021"
   style="stop-color:#000000"
   id="stop4" />
		<stop
   offset="1"
   style="stop-color:#EA992F"
   id="stop6" />
	</radialGradient>
	<path
   class="st1"
   d="m 18.5,26.7 c -4.5,0 -8.1,-3.6 -8.1,-8.1 0,-4.5 3.6,-8.1 8.1,-8.1 4.5,0 8.1,3.6 8.1,8.1 0,4.5 -3.6,8.1 -8.1,8.1 z"
   id="path9"
   style="fill:url(#SVGID_1_)" />
	<path
   class="st2"
   d="m 18.5,10.8 c 4.3,0 7.8,3.5 7.8,7.8 0,4.3 -3.5,7.8 -7.8,7.8 -4.3,0 -7.8,-3.5 -7.8,-7.8 0,-4.3 3.5,-7.8 7.8,-7.8 m 0,-0.5 c -4.6,0 -8.3,3.7 -8.3,8.3 0,4.6 3.7,8.3 8.3,8.3 4.6,0 8.3,-3.7 8.3,-8.3 0,-4.6 -3.7,-8.3 -8.3,-8.3 z"
   id="path11" />
</g><path
     class="st3"
     d="m 25.8,7.3 v 0 c -0.8,0 -1.5,-0.4 -1.9,-1 l -1,-1.4 H 18.5 18.4 14 l -1,1.4 c -0.4,0.6 -1.2,1 -1.9,1 v 0 c -0.4,0 -0.7,0.2 -1,0.5 l -4.3,6 v 10.4 1.7 c 0,0.2 0,0.4 0.1,0.6 l 2.8,5.6 H 11 c -0.1,1.4 -0.6,2.1 -0.6,2.1 v 1.1 h 5.7 V 32 c -1.1,-0.2 -2.6,-0.6 -4,-1.7 -0.3,0.2 -0.8,0.5 -1.7,0.5 -1.5,0 -1.8,-2.1 -1.8,-2.1 0.5,0 0.9,0 1.3,0.1 1,0.1 1.9,0.5 2.6,1.1 2.4,1.8 5,1.7 5.1,1.7 h 0.8 0.8 c 0.1,0 3.6,0.3 6.1,-2.2 l 0.1,0.1 c -1.6,1.6 -3.3,2.5 -4.6,2.7 v 3.3 h 5.7 v -1.1 c 0,0 -0.6,-0.9 -0.6,-2.6 0,-1.7 1,-2.9 1,-2.9 H 28 l 2.8,-3.2 c 0.2,-0.2 0.3,-0.6 0.3,-0.9 V 14 L 26.8,8 C 26.6,7.5 26.2,7.3 25.8,7.3 Z M 23.7,28.5 C 13.7,33.2 3.9,23.4 8.5,13.3 c 1,-2.1 2.7,-3.8 4.7,-4.7 10,-4.7 19.8,5.1 15.2,15.2 -0.9,2.1 -2.6,3.8 -4.7,4.7 z"
     id="path15"
     style="fill:#273839;fill-opacity:1" /><path
     class="st3"
     d="M 18.5,8.1 C 12.7,8.1 8,12.8 8,18.6 8,24.4 12.7,29.1 18.5,29.1 24.3,29.1 29,24.4 29,18.6 29,12.8 24.3,8.1 18.5,8.1 Z m 9.1,12.3 h -1 c -0.2,1 -0.6,1.9 -1.1,2.7 l 0.7,0.7 c 0.2,0.2 0.2,0.5 0,0.6 l -1.9,1.9 c -0.2,0.2 -0.5,0.2 -0.6,0 L 23,25.6 c -0.8,0.5 -1.7,0.9 -2.7,1.1 v 1 c 0,0.2 -0.2,0.4 -0.4,0.4 h -2.7 c -0.2,0 -0.4,-0.2 -0.4,-0.4 v -1 c -1,-0.2 -1.9,-0.6 -2.7,-1.1 l -0.7,0.7 c -0.2,0.2 -0.5,0.2 -0.6,0 l -1.9,-1.9 c -0.2,-0.2 -0.2,-0.5 0,-0.6 l 0.7,-0.7 c -0.5,-0.8 -0.9,-1.7 -1.1,-2.7 h -1 C 9.3,20.4 9.1,20.2 9.1,20 v -2.7 c 0,-0.2 0.2,-0.4 0.4,-0.4 h 1 c 0.2,-1 0.6,-1.9 1.1,-2.7 l -0.7,-0.7 c -0.2,-0.2 -0.2,-0.5 0,-0.6 L 12.8,11 c 0.2,-0.2 0.5,-0.2 0.6,0 l 0.7,0.7 c 0.8,-0.5 1.7,-0.9 2.7,-1.1 v -1 c 0,-0.2 0.2,-0.4 0.4,-0.4 h 2.7 c 0.2,0 0.4,0.2 0.4,0.4 v 1 c 1,0.2 1.9,0.6 2.7,1.1 L 23.7,11 c 0.2,-0.2 0.5,-0.2 0.6,0 l 1.9,1.9 c 0.2,0.2 0.2,0.5 0,0.6 l -0.7,0.7 c 0.5,0.8 0.9,1.7 1.1,2.7 h 1 c 0.2,0 0.4,0.2 0.4,0.4 V 20 c 0,0.2 -0.2,0.4 -0.4,0.4 z"
     id="path17"
     style="fill:#273839;fill-opacity:1" /><rect
     x="31.799999"
     y="19.6"
     class="st3"
     width="2.5"
     height="1.7"
     id="rect19"
     style="fill:#273839;fill-opacity:1" /><path
     class="st3"
     d="M 34.3,14.6 V 14 c 0,-0.2 -0.2,-0.4 -0.4,-0.4 h -1.7 c -0.2,0 -0.4,0.2 -0.4,0.4 v 0.6 z"
     id="path21"
     style="fill:#273839;fill-opacity:1" /><polygon
     class="st3"
     points="34.3,21.9 31.8,21.9 31.8,23.7 33.7,23.7 33.7,23.4 34.3,23.2 "
     id="polygon23"
     style="fill:#273839;fill-opacity:1" /><rect
     x="31.799999"
     y="17.299999"
     class="st3"
     width="2.5"
     height="1.7"
     id="rect25"
     style="fill:#273839;fill-opacity:1" /><path
     class="st3"
     d="m 31.8,24.1 v 0.3 c 0,0.2 0.2,0.4 0.4,0.4 h 1.5 v -0.7 z"
     id="path27"
     style="fill:#273839;fill-opacity:1" /><rect
     x="31.799999"
     y="15"
     class="st3"
     width="2.5"
     height="1.8"
     id="rect29"
     style="fill:#273839;fill-opacity:1" /><rect
     x="18.799999"
     y="1.8"
     class="st3"
     width="1.9"
     height="2.5"
     id="rect31"
     style="fill:#273839;fill-opacity:1" /><path
     class="st3"
     d="m 13.7,1.8 h -0.6 c -0.2,0 -0.4,0.2 -0.4,0.4 v 1.7 c 0,0.2 0.2,0.4 0.4,0.4 h 0.6 z"
     id="path33"
     style="fill:#273839;fill-opacity:1" /><rect
     x="16.4"
     y="1.8"
     class="st3"
     width="1.9"
     height="2.5"
     id="rect35"
     style="fill:#273839;fill-opacity:1" /><rect
     x="14.1"
     y="1.8"
     class="st3"
     width="1.8"
     height="2.5"
     id="rect37"
     style="fill:#273839;fill-opacity:1" /><path
     class="st3"
     d="m 23.3,1.8 h 0.6 c 0.2,0 0.4,0.2 0.4,0.4 v 1.7 c 0,0.2 -0.2,0.4 -0.4,0.4 h -0.6 z"
     id="path39"
     style="fill:#273839;fill-opacity:1" /><rect
     x="21.1"
     y="1.8"
     class="st3"
     width="1.8"
     height="2.5"
     id="rect41"
     style="fill:#273839;fill-opacity:1" /><polygon
     class="st3"
     points="34.7,23.7 34.7,14.6 36.2,15 36.2,23.3 "
     id="polygon43"
     style="fill:#273839;fill-opacity:1" /><rect
     x="2.7"
     y="19.6"
     class="st3"
     width="2.5"
     height="1.7"
     id="rect45"
     style="fill:#273839;fill-opacity:1" /><path
     class="st3"
     d="m 2.7,14.5 v -0.6 c 0,-0.2 0.2,-0.4 0.4,-0.4 h 1.7 c 0.2,0 0.4,0.2 0.4,0.4 v 0.6 z"
     id="path47"
     style="fill:#273839;fill-opacity:1" /><polygon
     class="st3"
     points="2.7,21.8 5.2,21.8 5.2,23.6 3.3,23.6 3.3,23.4 2.7,23.1 "
     id="polygon49"
     style="fill:#273839;fill-opacity:1" /><rect
     x="2.7"
     y="17.299999"
     class="st3"
     width="2.5"
     height="1.7"
     id="rect51"
     style="fill:#273839;fill-opacity:1" /><path
     class="st3"
     d="m 5.2,24 v 0.3 c 0,0.2 -0.2,0.4 -0.4,0.4 H 3.3 V 24 Z"
     id="path53"
     style="fill:#273839;fill-opacity:1" /><rect
     x="2.7"
     y="14.9"
     class="st3"
     width="2.5"
     height="1.8"
     id="rect55"
     style="fill:#273839;fill-opacity:1" /><polygon
     class="st3"
     points="2.3,23.6 2.3,14.5 0.8,14.9 0.8,23.2 "
     id="polygon57"
     style="fill:#273839;fill-opacity:1" /></g>
</svg>
