<?xml version="1.0" encoding="UTF-8" standalone="no"?>
<!-- Created with Inkscape (http://www.inkscape.org/) -->

<svg
   width="512"
   height="512"
   viewBox="0 0 135.46666 135.46667"
   version="1.1"
   id="svg5"
   inkscape:version="1.1.1 (3bf5ae0d25, 2021-09-20)"
   sodipodi:docname="Hammerpoint Rounds Attachment.svg"
   xmlns:inkscape="http://www.inkscape.org/namespaces/inkscape"
   xmlns:sodipodi="http://sodipodi.sourceforge.net/DTD/sodipodi-0.dtd"
   xmlns="http://www.w3.org/2000/svg"
   xmlns:svg="http://www.w3.org/2000/svg">
  <sodipodi:namedview
     id="namedview7"
     pagecolor="#ffffff"
     bordercolor="#666666"
     borderopacity="1.0"
     inkscape:pageshadow="2"
     inkscape:pageopacity="0.0"
     inkscape:pagecheckerboard="0"
     inkscape:document-units="mm"
     showgrid="false"
     units="px"
     width="512px"
     inkscape:zoom="0.58854417"
     inkscape:cx="352.56487"
     inkscape:cy="259.11394"
     inkscape:window-width="1366"
     inkscape:window-height="697"
     inkscape:window-x="-8"
     inkscape:window-y="-8"
     inkscape:window-maximized="1"
     inkscape:current-layer="layer1" />
  <defs
     id="defs2">
    <style
       id="style2-99">.cls-1{fill:#241c1c;}</style>
  </defs>
  <g
     inkscape:label="Layer 1"
     inkscape:groupmode="layer"
     id="layer1">
    <rect
       style="fill:#273839;fill-opacity:0.25098;stroke:#273839;stroke-width:4.73369;stroke-linejoin:round;stroke-opacity:1"
       id="rect846"
       width="124.383"
       height="124.38298"
       x="5.5418315"
       y="5.5418429"
       ry="9.9077339" />
    <g
       id="g74"
       style="fill:#273839;fill-opacity:1"
       transform="matrix(2.6603709,0,0,2.6603709,18.516472,18.516472)">
      <g
         id="g22"
         style="fill:#273839;fill-opacity:1">
        <path
           class="st0"
           d="m 24.7,7.9 c -1,0 -1.99998,1.5 -2.59998,3.9 0.5,-0.8 0.99998,-1.3 1.49998,-1.3 1.6,0 3,3.9 3,8.7 0,4.8 -1.3,8.7 -3,8.7 -0.6,0 -0.99998,-0.5 -1.49998,-1.3 0.6,2.5 1.49998,4 2.49998,4 1.9,0 3.4,-5.1 3.4,-11.3 C 28.1,13 26.6,7.9 24.7,7.9 Z"
           id="path4"
           style="fill:#273839;fill-opacity:1"
           sodipodi:nodetypes="scssscscs" />
        <path
           class="st0"
           d="m 23.8,12.5 c -0.7,0 -1.4,1.2 -1.7,3 0.3,-0.5 0.6,-0.9 1,-0.9 1,0 1.6,2.1 1.6,4.7 0,2.6 -0.6,4.7 -1.6,4.7 -0.3,0 -0.69998,-0.3 -0.99998,-0.7 0.4,1.5 1.09998,2.5 1.69998,2.5 1.1,0 2.1,-3 2.1,-6.8 -0.1,-3.5 -1,-6.5 -2.1,-6.5 z"
           id="path6"
           style="fill:#273839;fill-opacity:1"
           sodipodi:nodetypes="scssscscs" />
        <path
           class="st0"
           d="M 10.6,8.9 17.169083,12.624905 22,17.5 15.788911,13.939069 C 13.993628,12.270053 12.170639,10.444641 10.6,8.9 Z"
           id="path8"
           style="fill:#273839;fill-opacity:1"
           sodipodi:nodetypes="ccccc" />
        <path
           class="st0"
           d="M 9.7,28.3 16.691034,23.532319 23.5,20.3 17.91893,24.762261 Z"
           id="path10"
           style="fill:#273839;fill-opacity:1"
           sodipodi:nodetypes="ccccc" />
        <path
           class="st0"
           d="M 8.6,14.2 15.956071,15.62033 22,18.6 15.047028,17.281243 Z"
           id="path12"
           style="fill:#273839;fill-opacity:1"
           sodipodi:nodetypes="ccccc" />
        <path
           class="st0"
           d="M 5.8,27.1 13.940053,22.115155 22.2,19.7 14.474231,24.480411 Z"
           id="path14"
           style="fill:#273839;fill-opacity:1"
           sodipodi:nodetypes="ccccc" />
        <path
           class="st0"
           d="m 9.6,12 3,0.7 2.4,1.5 -3,-0.5 z"
           id="path16"
           style="fill:#273839;fill-opacity:1"
           sodipodi:nodetypes="ccccc" />
        <path
           class="st0"
           d="m 11.3,20.2 2.4,-0.9 2.3,-0.1 -2.2,1 z"
           id="path18"
           style="fill:#273839;fill-opacity:1"
           sodipodi:nodetypes="ccccc" />
        <path
           class="st0"
           d="M 17.7,28.3 17.960918,26.238777 19.3,25.1 19.20527,27.137159 Z"
           id="path20"
           style="fill:#273839;fill-opacity:1"
           sodipodi:nodetypes="ccccc" />
      </g>
      <path
         class="st0"
         d="M 30.8,2.3 H 6.2 C 4.7,3.8 3.8,4.7 2.3,6.2 v 24.6 c 1.5,1.5 2.4,2.4 3.9,3.9 h 24.6 c 1.5,-1.5 2.4,-2.4 3.9,-3.9 V 6.2 C 33.2,4.7 32.3,3.8 30.8,2.3 Z M 32.2,30 c -0.8,0.8 -1.3,1.3 -2.1,2.1 H 6.9 C 6.1,31.3 5.6,30.8 4.8,30 V 7.2 C 5.6,6.3 6.1,5.9 6.9,5 h 18.3 c 2.7,2.7 4.3,4.3 7,7 z"
         id="path24"
         style="fill:#273839;fill-opacity:1" />
      <g
         id="g36"
         style="fill:#273839;fill-opacity:1">
        <path
           class="st0"
           d="M 7.2,2 V 1.1 C 7.2,0.7 7.6,0.3 8,0.3 h 2.4 c 0.4,0 0.8,0.4 0.8,0.8 V 2 Z"
           id="path26"
           style="fill:#273839;fill-opacity:1" />
        <path
           class="st0"
           d="M 11.8,2 V 1.1 c 0,-0.4 0.4,-0.8 0.8,-0.8 H 15 c 0.4,0 0.8,0.4 0.8,0.8 V 2 Z"
           id="path28"
           style="fill:#273839;fill-opacity:1" />
        <path
           class="st0"
           d="M 16.5,2 V 1.1 c 0,-0.4 0.4,-0.8 0.8,-0.8 h 2.4 c 0.4,0 0.8,0.4 0.8,0.8 V 2 Z"
           id="path30"
           style="fill:#273839;fill-opacity:1" />
        <path
           class="st0"
           d="M 25.7,2 V 1.1 c 0,-0.4 0.4,-0.8 0.8,-0.8 h 2.4 c 0.4,0 0.8,0.4 0.8,0.8 V 2 Z"
           id="path32"
           style="fill:#273839;fill-opacity:1" />
        <path
           class="st0"
           d="M 21.1,2 V 1.1 c 0,-0.4 0.4,-0.8 0.8,-0.8 h 2.4 c 0.4,0 0.8,0.4 0.8,0.8 V 2 Z"
           id="path34"
           style="fill:#273839;fill-opacity:1" />
      </g>
      <g
         id="g48"
         style="fill:#273839;fill-opacity:1">
        <path
           class="st0"
           d="m 7.1,35 v 0.9 c 0,0.4 0.4,0.8 0.8,0.8 h 2.4 c 0.4,0 0.8,-0.4 0.8,-0.8 V 35 Z"
           id="path38"
           style="fill:#273839;fill-opacity:1" />
        <path
           class="st0"
           d="m 11.8,35 v 0.9 c 0,0.4 0.4,0.8 0.8,0.8 H 15 c 0.4,0 0.8,-0.4 0.8,-0.8 V 35 Z"
           id="path40"
           style="fill:#273839;fill-opacity:1" />
        <path
           class="st0"
           d="m 16.4,35 v 0.9 c 0,0.4 0.4,0.8 0.8,0.8 h 2.4 c 0.4,0 0.8,-0.4 0.8,-0.8 V 35 Z"
           id="path42"
           style="fill:#273839;fill-opacity:1" />
        <path
           class="st0"
           d="m 25.7,35 v 0.9 c 0,0.4 0.4,0.8 0.8,0.8 h 2.4 c 0.4,0 0.8,-0.4 0.8,-0.8 V 35 Z"
           id="path44"
           style="fill:#273839;fill-opacity:1" />
        <path
           class="st0"
           d="m 21,35 v 0.9 c 0,0.4 0.4,0.8 0.8,0.8 h 2.4 c 0.4,0 0.8,-0.4 0.8,-0.8 V 35 Z"
           id="path46"
           style="fill:#273839;fill-opacity:1" />
      </g>
      <g
         id="g60"
         style="fill:#273839;fill-opacity:1">
        <path
           class="st0"
           d="M 2,29.7 H 1.1 c -0.4,0 -0.8,-0.4 -0.8,-0.8 v -2.4 c 0,-0.4 0.4,-0.8 0.8,-0.8 H 2 Z"
           id="path50"
           style="fill:#273839;fill-opacity:1" />
        <path
           class="st0"
           d="M 2,25.1 H 1.1 c -0.4,0 -0.8,-0.4 -0.8,-0.8 v -2.4 c 0,-0.4 0.4,-0.8 0.8,-0.8 H 2 Z"
           id="path52"
           style="fill:#273839;fill-opacity:1" />
        <path
           class="st0"
           d="M 2,20.5 H 1.1 c -0.4,0 -0.8,-0.4 -0.8,-0.8 v -2.4 c 0,-0.4 0.4,-0.8 0.8,-0.8 H 2 Z"
           id="path54"
           style="fill:#273839;fill-opacity:1" />
        <path
           class="st0"
           d="M 2,11.2 H 1.1 C 0.7,11.2 0.3,10.8 0.3,10.4 V 8 C 0.3,7.6 0.7,7.2 1.1,7.2 H 2 Z"
           id="path56"
           style="fill:#273839;fill-opacity:1" />
        <path
           class="st0"
           d="M 2,15.9 H 1.1 c -0.4,0 -0.8,-0.4 -0.8,-0.8 v -2.4 c 0,-0.4 0.4,-0.8 0.8,-0.8 H 2 Z"
           id="path58"
           style="fill:#273839;fill-opacity:1" />
      </g>
      <g
         id="g72"
         style="fill:#273839;fill-opacity:1">
        <path
           class="st0"
           d="m 35,29.8 h 0.9 c 0.4,0 0.8,-0.4 0.8,-0.8 v -2.4 c 0,-0.4 -0.4,-0.8 -0.8,-0.8 H 35 Z"
           id="path62"
           style="fill:#273839;fill-opacity:1" />
        <path
           class="st0"
           d="m 35,25.2 h 0.9 c 0.4,0 0.8,-0.4 0.8,-0.8 V 22 c 0,-0.4 -0.4,-0.8 -0.8,-0.8 H 35 Z"
           id="path64"
           style="fill:#273839;fill-opacity:1" />
        <path
           class="st0"
           d="m 35,20.6 h 0.9 c 0.4,0 0.8,-0.4 0.8,-0.8 v -2.4 c 0,-0.4 -0.4,-0.8 -0.8,-0.8 H 35 Z"
           id="path66"
           style="fill:#273839;fill-opacity:1" />
        <path
           class="st0"
           d="m 35,11.3 h 0.9 c 0.4,0 0.8,-0.4 0.8,-0.8 V 8.1 C 36.7,7.7 36.3,7.3 35.9,7.3 H 35 Z"
           id="path68"
           style="fill:#273839;fill-opacity:1" />
        <path
           class="st0"
           d="m 35,15.9 h 0.9 c 0.4,0 0.8,-0.4 0.8,-0.8 v -2.4 c 0,-0.4 -0.4,-0.8 -0.8,-0.8 H 35 Z"
           id="path70"
           style="fill:#273839;fill-opacity:1" />
      </g>
    </g>
  </g>
  <style
     type="text/css"
     id="style2">
	.st0{fill:#241C1C;}
	.st1{fill:#483737;}
</style>
  <style
     type="text/css"
     id="style2-1">
	.st0{fill:#483737;}
	.st1{fill:#241C1C;}
</style>
  <style
     type="text/css"
     id="style2-2">
	.st0{fill:#483737;}
	.st1{fill:#241C1C;}
</style>
  <style
     type="text/css"
     id="style2-8">
	.st0{fill:#483737;}
	.st1{fill:#241C1C;}
</style>
  <style
     type="text/css"
     id="style2-9">
	.st0{fill:#483737;}
	.st1{fill:#241C1C;}
</style>
  <style
     type="text/css"
     id="style2-7">
	.st0{fill:#483737;}
	.st1{fill:#241C1C;}
</style>
  <style
     type="text/css"
     id="style2-5">
	.st0{fill:#483737;}
	.st1{fill:#241C1C;}
</style>
</svg>
