<?xml version="1.0" encoding="UTF-8" standalone="no"?>
<!-- Created with Inkscape (http://www.inkscape.org/) -->

<svg
   width="512"
   height="512"
   viewBox="0 0 135.46666 135.46667"
   version="1.1"
   id="svg5"
   inkscape:version="1.1.1 (3bf5ae0d25, 2021-09-20)"
   sodipodi:docname="Hop-Up Attachment.svg"
   xmlns:inkscape="http://www.inkscape.org/namespaces/inkscape"
   xmlns:sodipodi="http://sodipodi.sourceforge.net/DTD/sodipodi-0.dtd"
   xmlns="http://www.w3.org/2000/svg"
   xmlns:svg="http://www.w3.org/2000/svg">
  <sodipodi:namedview
     id="namedview7"
     pagecolor="#ffffff"
     bordercolor="#666666"
     borderopacity="1.0"
     inkscape:pageshadow="2"
     inkscape:pageopacity="0.0"
     inkscape:pagecheckerboard="0"
     inkscape:document-units="mm"
     showgrid="false"
     units="px"
     width="512px"
     inkscape:zoom="0.58854417"
     inkscape:cx="242.12287"
     inkscape:cy="259.11394"
     inkscape:window-width="1366"
     inkscape:window-height="697"
     inkscape:window-x="-8"
     inkscape:window-y="-8"
     inkscape:window-maximized="1"
     inkscape:current-layer="layer1" />
  <defs
     id="defs2">
    <style
       id="style2-99">.cls-1{fill:#241c1c;}</style>
  </defs>
  <g
     inkscape:label="Layer 1"
     inkscape:groupmode="layer"
     id="layer1">
    <rect
       style="fill:#273839;fill-opacity:0.25098041;stroke:#273839;stroke-width:4.73369;stroke-linejoin:round;stroke-opacity:1"
       id="rect846"
       width="124.38298"
       height="124.38298"
       x="5.5418429"
       y="5.5418429"
       ry="9.9077339" />
    <polygon
       class="cls-1"
       points="12.57,0 10.793,0 10.793,6.574 6.574,6.574 6.574,10.793 0,10.793 0,12.57 6.574,12.57 6.574,16.612 0,16.612 0,18.388 6.574,18.388 6.574,22.43 0,22.43 0,24.207 6.574,24.207 6.574,28.426 10.793,28.426 10.793,35 12.57,35 12.57,28.426 16.612,28.426 16.612,35 18.388,35 18.388,28.426 22.43,28.426 22.43,35 24.207,35 24.207,28.426 28.426,28.426 28.426,24.207 35,24.207 35,22.43 28.426,22.43 28.426,18.388 35,18.388 35,16.612 28.426,16.612 28.426,12.57 35,12.57 35,10.793 28.426,10.793 28.426,6.574 24.207,6.574 24.207,0 22.43,0 22.43,6.574 18.388,6.574 18.388,0 16.612,0 16.612,6.574 12.57,6.574 "
       id="polygon8"
       style="fill:#273839;fill-opacity:1"
       transform="matrix(2.7667857,0,0,2.7667857,19.314584,19.314584)" />
  </g>
  <style
     type="text/css"
     id="style2">
	.st0{fill:#241C1C;}
	.st1{fill:#483737;}
</style>
  <style
     type="text/css"
     id="style2-1">
	.st0{fill:#483737;}
	.st1{fill:#241C1C;}
</style>
  <style
     type="text/css"
     id="style2-2">
	.st0{fill:#483737;}
	.st1{fill:#241C1C;}
</style>
  <style
     type="text/css"
     id="style2-8">
	.st0{fill:#483737;}
	.st1{fill:#241C1C;}
</style>
  <style
     type="text/css"
     id="style2-9">
	.st0{fill:#483737;}
	.st1{fill:#241C1C;}
</style>
  <style
     type="text/css"
     id="style2-7">
	.st0{fill:#483737;}
	.st1{fill:#241C1C;}
</style>
  <style
     type="text/css"
     id="style2-5">
	.st0{fill:#483737;}
	.st1{fill:#241C1C;}
</style>
</svg>
