<?xml version="1.0" encoding="UTF-8" standalone="no"?>
<!-- Created with Inkscape (http://www.inkscape.org/) -->

<svg
   width="512"
   height="512"
   viewBox="0 0 135.46666 135.46667"
   version="1.1"
   id="svg5"
   inkscape:version="1.1.1 (3bf5ae0d25, 2021-09-20)"
   sodipodi:docname="Mag Attachment Bolt.svg"
   xmlns:inkscape="http://www.inkscape.org/namespaces/inkscape"
   xmlns:sodipodi="http://sodipodi.sourceforge.net/DTD/sodipodi-0.dtd"
   xmlns="http://www.w3.org/2000/svg"
   xmlns:svg="http://www.w3.org/2000/svg">
  <sodipodi:namedview
     id="namedview7"
     pagecolor="#ffffff"
     bordercolor="#666666"
     borderopacity="1.0"
     inkscape:pageshadow="2"
     inkscape:pageopacity="0.0"
     inkscape:pagecheckerboard="0"
     inkscape:document-units="mm"
     showgrid="false"
     units="px"
     width="512px"
     inkscape:zoom="0.58854417"
     inkscape:cx="242.12287"
     inkscape:cy="259.11394"
     inkscape:window-width="1366"
     inkscape:window-height="697"
     inkscape:window-x="-8"
     inkscape:window-y="-8"
     inkscape:window-maximized="1"
     inkscape:current-layer="layer1" />
  <defs
     id="defs2" />
  <g
     inkscape:label="Layer 1"
     inkscape:groupmode="layer"
     id="layer1">
    <rect
       style="fill:#273839;fill-opacity:0.25098041;stroke:#273839;stroke-width:4.73369;stroke-linejoin:round;stroke-opacity:1"
       id="rect846"
       width="124.38298"
       height="124.38298"
       x="5.5418429"
       y="5.5418429"
       ry="9.9077339" />
    <g
       id="g24"
       transform="matrix(0.19843671,0,0,0.19843671,19.314667,48.582008)">
	<g
   id="g20">
		
		
		
		
		
		
		
		
	</g>

	<g
   id="g873"
   transform="matrix(13.189219,0,0,13.189219,0,-147.48955)">
  <path
     class="st0"
     d="M 9.8,24.9 H 7.7 c -0.2,0 -0.4,-0.2 -0.4,-0.4 v -4.8 c 0,-0.2 0.2,-0.4 0.4,-0.4 h 2.1 c 0.2,0 0.4,0.2 0.4,0.4 v 4.8 c 0,0.2 -0.2,0.4 -0.4,0.4 z"
     id="path4"
     style="fill:#4b5354;fill-opacity:1" />
  <path
     class="st0"
     d="m 35,24.9 h -2.1 c -0.2,0 -0.4,-0.2 -0.4,-0.4 v -4.8 c 0,-0.2 0.2,-0.4 0.4,-0.4 H 35 c 0.2,0 0.4,0.2 0.4,0.4 v 4.8 c -0.1,0.2 -0.2,0.4 -0.4,0.4 z"
     id="path6"
     style="fill:#4b5354;fill-opacity:1" />
  <path
     class="st0"
     d="m 13.4,24.9 h -2.1 c -0.2,0 -0.4,-0.2 -0.4,-0.4 v -4.8 c 0,-0.2 0.2,-0.4 0.4,-0.4 h 2.1 c 0.2,0 0.4,0.2 0.4,0.4 v 4.8 c 0,0.2 -0.2,0.4 -0.4,0.4 z"
     id="path8"
     style="fill:#4b5354;fill-opacity:1" />
  <path
     class="st0"
     d="m 17,24.9 h -2.1 c -0.2,0 -0.4,-0.2 -0.4,-0.4 v -4.8 c 0,-0.2 0.2,-0.4 0.4,-0.4 H 17 c 0.2,0 0.4,0.2 0.4,0.4 v 4.8 c 0,0.2 -0.2,0.4 -0.4,0.4 z"
     id="path10"
     style="fill:#4b5354;fill-opacity:1" />
  <path
     class="st0"
     d="M 24.2,24.9 H 22 c -0.2,0 -0.4,-0.2 -0.4,-0.4 v -4.8 c 0,-0.2 0.2,-0.4 0.4,-0.4 h 2.1 c 0.2,0 0.4,0.2 0.4,0.4 v 4.8 c 0.1,0.2 -0.1,0.4 -0.3,0.4 z"
     id="path12"
     style="fill:#4b5354;fill-opacity:1" />
  <path
     class="st0"
     d="m 27.8,24.9 h -2.1 c -0.2,0 -0.4,-0.2 -0.4,-0.4 v -4.8 c 0,-0.2 0.2,-0.4 0.4,-0.4 h 2.1 c 0.2,0 0.4,0.2 0.4,0.4 v 4.8 c -0.1,0.2 -0.2,0.4 -0.4,0.4 z"
     id="path14"
     style="fill:#4b5354;fill-opacity:1" />
  <path
     class="st0"
     d="m 31.4,24.9 h -2.1 c -0.2,0 -0.4,-0.2 -0.4,-0.4 v -4.8 c 0,-0.2 0.2,-0.4 0.4,-0.4 h 2.1 c 0.2,0 0.4,0.2 0.4,0.4 v 4.8 c -0.1,0.2 -0.2,0.4 -0.4,0.4 z"
     id="path16"
     style="fill:#4b5354;fill-opacity:1" />
  <path
     class="st0"
     d="m 20.6,24.9 h -2.1 c -0.2,0 -0.4,-0.2 -0.4,-0.4 v -4.8 c 0,-0.2 0.2,-0.4 0.4,-0.4 h 2.1 c 0.2,0 0.4,0.2 0.4,0.4 v 4.8 c 0,0.2 -0.2,0.4 -0.4,0.4 z"
     id="path18"
     style="fill:#4b5354;fill-opacity:1" />
  <path
     class="st1"
     d="m 35.8,14.2 h -7.4 c 0,0 -2.1,-2.1 -2.9,-2.1 H 0.6 C 0.2,12.1 0,12.4 0,12.7 v 6.1 c 0,0.3 0.1,0.5 0.3,0.7 l 0.6,0.6 c 0.1,0.1 0.2,0.3 0.2,0.5 v 2.5 c 0,0.2 0.1,0.4 0.2,0.6 L 2,24.5 c 0.1,0.1 0.3,0.2 0.4,0.2 h 4 V 19 c 0,-0.2 0.2,-0.4 0.4,-0.4 h 28.1 c 0.2,0 0.5,-0.1 0.6,-0.3 L 37,15.8 c 0,-0.1 -0.1,-1.6 -1.2,-1.6 z M 3.3,14.7 c -0.3,0 -0.5,0.2 -0.5,0.5 v 6.2 L 2.1,20.7 v -6.1 c 0,-0.3 0.2,-0.5 0.5,-0.5 h 20.1 l 2.4,0.6 z"
     id="path22"
     style="fill:#273839;fill-opacity:1" />
</g>

</g>
  </g>
  <style
     type="text/css"
     id="style2">
	.st0{fill:#241C1C;}
	.st1{fill:#483737;}
</style>
  <style
     type="text/css"
     id="style2-1">
	.st0{fill:#483737;}
	.st1{fill:#241C1C;}
</style>
  <style
     type="text/css"
     id="style2-2">
	.st0{fill:#483737;}
	.st1{fill:#241C1C;}
</style>
  <style
     type="text/css"
     id="style2-8">
	.st0{fill:#483737;}
	.st1{fill:#241C1C;}
</style>
  <style
     type="text/css"
     id="style2-9">
	.st0{fill:#483737;}
	.st1{fill:#241C1C;}
</style>
</svg>
