<?xml version="1.0" encoding="UTF-8" standalone="no"?>
<!-- Created with Inkscape (http://www.inkscape.org/) -->

<svg
   width="512"
   height="512"
   viewBox="0 0 135.46666 135.46667"
   version="1.1"
   id="svg5"
   inkscape:version="1.1.1 (3bf5ae0d25, 2021-09-20)"
   sodipodi:docname="Mag Attachment CAR.svg"
   xmlns:inkscape="http://www.inkscape.org/namespaces/inkscape"
   xmlns:sodipodi="http://sodipodi.sourceforge.net/DTD/sodipodi-0.dtd"
   xmlns="http://www.w3.org/2000/svg"
   xmlns:svg="http://www.w3.org/2000/svg">
  <sodipodi:namedview
     id="namedview7"
     pagecolor="#ffffff"
     bordercolor="#666666"
     borderopacity="1.0"
     inkscape:pageshadow="2"
     inkscape:pageopacity="0.0"
     inkscape:pagecheckerboard="0"
     inkscape:document-units="mm"
     showgrid="false"
     units="px"
     width="512px"
     inkscape:zoom="0.58854417"
     inkscape:cx="242.12287"
     inkscape:cy="259.11394"
     inkscape:window-width="1366"
     inkscape:window-height="697"
     inkscape:window-x="-8"
     inkscape:window-y="-8"
     inkscape:window-maximized="1"
     inkscape:current-layer="layer1" />
  <defs
     id="defs2" />
  <g
     inkscape:label="Layer 1"
     inkscape:groupmode="layer"
     id="layer1">
    <rect
       style="fill:#273839;fill-opacity:0.25098041;stroke:#273839;stroke-width:4.73369;stroke-linejoin:round;stroke-opacity:1"
       id="rect846"
       width="124.38298"
       height="124.38298"
       x="5.5418429"
       y="5.5418429"
       ry="9.9077339" />
    <g
       id="g23345"
       transform="matrix(0.09921863,0,0,0.09921863,20.864815,18.551019)">
      <g
         id="layer2"
         inkscape:label="Layer 2"
         style="display:inline"
         transform="translate(-487.1771,-320.85058)" />
      <g
         id="layer1-8"
         inkscape:label="Layer 1"
         style="display:inline"
         transform="translate(-487.1771,-320.85058)">
        <g
           id="g1165"
           transform="matrix(13.007948,0,0,13.189206,-5837.9971,-3935.0814)">
          <path
             sodipodi:nodetypes="ccccccccccccccc"
             inkscape:connector-curvature="0"
             id="path914"
             d="m 509.39048,326.33496 h 5.54637 c 0.24431,2 1.01454,2.71359 2.75582,1 h 7 l -10,16 -3,-4 h -5 l -5,8 h 3 l 3,5 h 1 l -2,3 -4,-6 h -7.57219 z"
             style="display:inline;opacity:1;fill:#273839;fill-opacity:1;stroke:none;stroke-width:1px;stroke-linecap:butt;stroke-linejoin:miter;stroke-opacity:1" />
          <path
             inkscape:connector-curvature="0"
             id="path916"
             d="m 507.20287,340.48317 -3.84489,5.92202 h 1.63518 l 3.75651,5.43589 5.17071,-7.6456 -2.56326,-3.88909 z"
             style="display:inline;opacity:1;fill:#4b5354;fill-opacity:1;stroke:none;stroke-width:1px;stroke-linecap:butt;stroke-linejoin:miter;stroke-opacity:1"
             sodipodi:nodetypes="ccccccc" />
          <path
             sodipodi:nodetypes="cccccc"
             inkscape:connector-curvature="0"
             id="path910"
             d="m 508.69267,326.33496 -3.08079,0.006 -14.23052,20.94803 0.31131,2.04597 h 3 z"
             style="display:inline;opacity:1;fill:#273839;fill-opacity:1;stroke:none;stroke-width:1px;stroke-linecap:butt;stroke-linejoin:miter;stroke-opacity:1" />
          <path
             sodipodi:nodetypes="cccccccccccc"
             inkscape:connector-curvature="0"
             id="path921"
             d="m 489.69267,349.78808 -2.48437,4.54688 -0.0312,3.51562 h 19 v -2 l -4,-6 z m 2,2.54688 h 9.61872 l 1.38128,3 h -12 z"
             style="display:inline;fill:#273839;fill-opacity:1;stroke:none;stroke-width:1px;stroke-linecap:butt;stroke-linejoin:miter;stroke-opacity:1" />
        </g>
      </g>
    </g>
    <g
       id="g14"
       transform="matrix(1.3275603,0,0,1.3275594,67.297426,65.855292)"
       inkscape:transform-center-x="114.85547"
       inkscape:transform-center-y="-111.375">
	<path
   class="st0"
   d="m 11.4,31.8 c -0.2,0 -0.5,-0.1 -0.7,-0.2 L 7.5,29.9 C 7.1,29.7 7,29.5 7,29.1 6.9,27.6 6.2,26.9 5.8,26.6 5.6,26.4 5.4,26.2 5.4,25.9 l 0.1,-2.5 c 0,-0.1 0,-0.2 0.1,-0.4 L 3.8,19.8 C 3.5,19.9 3.1,20 2.8,20 L 1,20.1 c -0.5,0 -0.9,0.6 -0.7,1.1 l 6.6,14.4 c 0.2,0.4 0.6,0.5 1,0.4 0.9,-0.3 2.5,-0.9 4.4,-1.7 z"
   id="path4"
   style="fill:#4b5354;fill-opacity:1" />

	<path
   class="st1"
   d="M 36.1,4.5 30.8,2.3 H 26.7 L 22.8,1 C 22.3,0.8 21.8,1 21.5,1.5 20,5 13.9,16.9 4.5,19.7 l 1.4,2.5 c 0.2,-0.4 0.6,-0.7 1,-0.9 0.5,0.5 1.4,0.5 2.2,0.1 0.7,-0.4 1.1,-1.1 1.1,-1.8 1.9,-1.2 3.7,-2.8 5.2,-4.4 0.5,0.1 1.1,-0.1 1.5,-0.5 0.7,-0.6 1,-1.5 0.7,-2.1 2.3,-3 4.1,-6 5.2,-8.2 0.3,-0.5 0.8,-0.7 1.4,-0.6 l 2.3,0.8 h 4 l 3,1.2 c 0.4,0.2 0.7,0.8 0.5,1.4 -0.7,1.9 -1.9,4.3 -3.3,6.8 -0.7,-0.1 -1.5,0.5 -1.8,1.4 -0.2,0.5 -0.2,1.1 0,1.5 -1.4,2.1 -2.9,4.2 -4.3,6 -0.6,-0.2 -1.4,0 -1.9,0.6 -0.7,0.7 -0.8,1.5 -0.5,2.2 -0.1,0.1 -0.2,0.3 -0.4,0.4 -1.3,1.3 -3,2.5 -5,3.6 -0.6,-0.4 -1.6,-0.4 -2.6,0.2 -0.9,0.5 -1.4,1.2 -1.5,1.9 -0.2,0.1 -0.4,0.1 -0.6,0.1 L 13,34 c 3.5,-1.5 7.7,-3.7 10.4,-6.4 4.9,-4.9 12.5,-16.6 13.3,-22 0.1,-0.5 -0.2,-1 -0.6,-1.1 z"
   id="path6"
   style="fill:#273839;fill-opacity:1" />

	<g
   id="g10">
		<circle
   class="st0"
   cx="18.700001"
   cy="19.799999"
   r="2.5999999"
   id="circle8"
   style="fill:#4b5354;fill-opacity:1" />

	</g>

	<path
   class="st1"
   d="M 33.1,6.4 30.2,5.2 h -4 L 23.7,4.4 c -0.2,0 -0.3,0.1 -0.4,0.2 -1,2 -2.7,5 -5,8 0.2,0.9 -0.2,1.9 -1,2.5 -0.5,0.4 -1.1,0.6 -1.7,0.7 -1.6,1.7 -3.2,3 -4.8,4.1 -0.1,0.8 -0.6,1.6 -1.4,2 -0.5,0.3 -1,0.4 -1.5,0.4 -0.4,0 -0.7,-0.1 -1,-0.2 -0.4,0.3 -0.6,0.8 -0.6,1.3 l -0.1,2.1 c 0,0.2 0.1,0.5 0.3,0.6 0.5,0.4 1.1,1.2 1.3,2.5 0,0.3 0.2,0.5 0.4,0.7 l 2.9,1.5 c 0.3,0.1 0.5,0.2 0.8,0.2 0.1,0 0.2,0 0.3,0 0.3,-0.7 0.9,-1.4 1.7,-1.9 0.6,-0.4 1.3,-0.6 2,-0.6 0.4,0 0.7,0.1 1,0.2 1.9,-1.1 3.4,-2.2 4.5,-3.3 v 0 c -0.2,-0.8 0.1,-1.8 0.8,-2.5 0.6,-0.6 1.3,-0.9 2,-0.9 0,0 0.1,0 0.1,0 1.3,-1.6 2.6,-3.4 3.8,-5.3 C 28,16.2 28,15.6 28.2,15 c 0.3,-1 1.2,-1.7 2.1,-1.8 1.4,-2.5 2.5,-4.7 3.1,-6.4 0,-0.1 -0.1,-0.3 -0.3,-0.4 z m -10,0.9 1.8,2.6 -0.5,1 -1.8,-2.6 z m -10.3,13 0.5,3.2 -0.9,0.7 L 11.9,21 Z M 9.3,26 9,22.9 l 0.9,-0.6 0.3,3.2 z m 4.1,3.1 -2.8,-1.5 0.9,-0.6 2.8,1.5 z m 3.2,-2.1 -2.9,-1.4 0.9,-0.6 2.9,1.4 z m 2.1,-3.8 c -1.9,0 -3.4,-1.5 -3.4,-3.4 0,-1.9 1.5,-3.4 3.4,-3.4 1.9,0 3.4,1.5 3.4,3.4 0,1.9 -1.6,3.4 -3.4,3.4 z m 3.5,-9.1 -1.6,-2.8 0.6,-0.9 1.6,2.8 z m 4.9,1.2 -3.2,-0.3 0.6,-0.9 3.2,0.3 z m 2.3,-3.6 h -3.2 l 0.5,-1 h 3.2 z"
   id="path12"
   style="fill:#273839;fill-opacity:1" />

</g>
    <path
       style="fill:none;stroke:#273839;stroke-width:3.25183;stroke-linecap:butt;stroke-linejoin:miter;stroke-miterlimit:4;stroke-dasharray:none;stroke-opacity:1"
       d="M 102.06685,35.324687 36.120038,100.55855"
       id="path23493" />
  </g>
  <style
     type="text/css"
     id="style2">
	.st0{fill:#241C1C;}
	.st1{fill:#483737;}
</style>
  <style
     type="text/css"
     id="style2-1">
	.st0{fill:#483737;}
	.st1{fill:#241C1C;}
</style>
  <style
     type="text/css"
     id="style2-2">
	.st0{fill:#483737;}
	.st1{fill:#241C1C;}
</style>
</svg>
