<?xml version="1.0" encoding="UTF-8" standalone="no"?>
<!-- Created with Inkscape (http://www.inkscape.org/) -->

<svg
   width="512"
   height="512"
   viewBox="0 0 135.46666 135.46667"
   version="1.1"
   id="svg5"
   inkscape:version="1.1.1 (3bf5ae0d25, 2021-09-20)"
   sodipodi:docname="Mag Attachment Sniper.svg"
   xmlns:inkscape="http://www.inkscape.org/namespaces/inkscape"
   xmlns:sodipodi="http://sodipodi.sourceforge.net/DTD/sodipodi-0.dtd"
   xmlns="http://www.w3.org/2000/svg"
   xmlns:svg="http://www.w3.org/2000/svg">
  <sodipodi:namedview
     id="namedview7"
     pagecolor="#ffffff"
     bordercolor="#666666"
     borderopacity="1.0"
     inkscape:pageshadow="2"
     inkscape:pageopacity="0.0"
     inkscape:pagecheckerboard="0"
     inkscape:document-units="mm"
     showgrid="false"
     units="px"
     width="512px"
     inkscape:zoom="0.58854417"
     inkscape:cx="242.12287"
     inkscape:cy="259.11394"
     inkscape:window-width="1366"
     inkscape:window-height="697"
     inkscape:window-x="-8"
     inkscape:window-y="-8"
     inkscape:window-maximized="1"
     inkscape:current-layer="layer1" />
  <defs
     id="defs2" />
  <g
     inkscape:label="Layer 1"
     inkscape:groupmode="layer"
     id="layer1">
    <rect
       style="fill:#273839;fill-opacity:0.25098041;stroke:#273839;stroke-width:4.73369;stroke-linejoin:round;stroke-opacity:1"
       id="rect846"
       width="124.38298"
       height="124.38298"
       x="5.5418429"
       y="5.5418429"
       ry="9.9077339" />
    <g
       id="g922"
       transform="matrix(2.6899306,0,0,2.6899306,17.969617,17.969617)">
      <rect
         x="1.5"
         y="11.6"
         class="st1"
         width="2.7"
         height="6.6999998"
         id="rect18"
         style="fill:#273839;fill-opacity:1" />
      <g
         id="g901">
        <rect
           x="0.5"
           y="19.1"
           class="st0"
           width="36"
           height="3.5"
           id="rect4"
           style="fill:#4b5354;fill-opacity:1" />
        <path
           class="st1"
           d="m 33.9,27.2 -2.8,4.6 H 11.3 c 0,0 -1.7,-0.1 -1.7,-1.9 0,-1.9 -0.2,-2.3 -1.5,-2.3 -1.3,0 -4.3,0 -4.3,0 V 27.3 H 10 c 0,0 0.6,0.1 0.6,1.3 0,1.2 1,1.1 2,1.1 1,0 17.6,0 17.6,0 l 1.6,-2.4 h 2.1 z"
           id="path6"
           style="fill:#273839;fill-opacity:1" />
        <path
           class="st1"
           d="m 21.2,23.4 v 3.2 h 0.9 l 1.6,-0.2 1.6,0.2 h 9.5 c 0.4,0 0.7,-0.5 0.7,-0.9 V 23.3 H 21.2 Z"
           id="path14"
           style="fill:#273839;fill-opacity:1" />
        <rect
           x="4.8000002"
           y="23.4"
           class="st0"
           width="0.80000001"
           height="3.2"
           id="rect20"
           style="fill:#4b5354;fill-opacity:1" />
        <rect
           x="1.9"
           y="23.4"
           class="st1"
           width="2.4000001"
           height="3.2"
           id="rect22"
           style="fill:#273839;fill-opacity:1" />
        <rect
           x="15.5"
           y="23.4"
           class="st0"
           width="1.6"
           height="3.2"
           id="rect24"
           style="fill:#4b5354;fill-opacity:1" />
        <rect
           x="17.700001"
           y="23.4"
           class="st1"
           width="3"
           height="3.2"
           id="rect26"
           style="fill:#273839;fill-opacity:1" />
        <rect
           x="6.0999999"
           y="23.4"
           class="st1"
           width="8.8999996"
           height="3.2"
           id="rect28"
           style="fill:#273839;fill-opacity:1" />
        <g
           id="g882">
          <g
             id="g873">
            <path
               class="st1"
               d="m 31.1,12.3 -0.6,-0.6 c 0,0 -3.2,0 -4.6,0 -1.4,0 -1.2,0.5 -2.3,0.5 -1,0 -0.9,-0.5 -2.4,-0.5 v 6.7 h 12.9 v -6.1 z"
               id="path10"
               style="fill:#273839;fill-opacity:1" />
            <path
               class="st0"
               d="M 12.8,11.4 H 7.9 c -0.2,0 -0.4,0.2 -0.4,0.4 v 5.1 c 0,0.2 0.2,0.4 0.4,0.4 h 4.9 c 0.2,0 0.4,-0.2 0.4,-0.4 v -5.1 c 0,-0.3 -0.2,-0.4 -0.4,-0.4 z"
               id="path12"
               style="fill:#4b5354;fill-opacity:1" />
            <polygon
               class="st0"
               points="5.6,8.7 1.5,8.7 1.5,11.4 4.8,11.4 4.8,18.4 5.6,18.4 "
               id="polygon16"
               style="fill:#4b5354;fill-opacity:1" />
            <path
               class="st0"
               d="M 17.2,18.4 V 9.7 c 0.2,-0.4 0.3,-0.8 0.3,-1.3 0,-1 -0.5,-1.9 -1.1,-1.9 -0.6,0 -1.1,0.9 -1.1,1.9 0,0.5 0.1,0.9 0.3,1.3 v 0.1 8.6 z"
               id="path30"
               style="fill:#4b5354;fill-opacity:1" />
            <path
               class="st1"
               d="M 19,9.3 V 6.2 c 0,-0.5 -0.4,-1 -1,-1 H 2.5 c -0.5,0 -1,0.4 -1,1 v 2 H 6.1 V 18.4 H 15 V 9.8 C 14.8,9.4 14.7,8.9 14.7,8.4 14.7,7 15.4,6 16.3,6 c 1,-0.1 1.7,1 1.7,2.3 0,0.5 -0.1,1 -0.3,1.4 v 8.6 h 0.8 0.5 1.7 V 11.6 C 19,11.4 19,9.3 19,9.3 Z m -5.3,7.6 c 0,0.5 -0.4,0.9 -0.9,0.9 H 7.9 C 7.4,17.8 7,17.4 7,16.9 v -5.1 c 0,-0.5 0.4,-0.9 0.9,-0.9 h 4.9 c 0.5,0 0.9,0.4 0.9,0.9 z"
               id="path32"
               style="fill:#273839;fill-opacity:1" />
          </g>
          <path
             class="st0"
             d="M 23.6,18.4 H 26 v -6.7 c 0,0 0,0 -0.1,0 -1.4,0 -1.2,0.5 -2.3,0.5 0,0 0,0 0,0 z"
             id="path34"
             style="fill:#4b5354;fill-opacity:1" />
        </g>
        <polygon
           class="st0"
           points="26,23.4 23.6,23.4 23.6,26.4 25.2,26.7 26,26.7 "
           id="polygon36"
           style="fill:#4b5354;fill-opacity:1"
           transform="translate(0.1,-0.1)" />
      </g>
    </g>
  </g>
  <style
     type="text/css"
     id="style2">
	.st0{fill:#241C1C;}
	.st1{fill:#483737;}
</style>
  <style
     type="text/css"
     id="style2-1">
	.st0{fill:#483737;}
	.st1{fill:#241C1C;}
</style>
  <style
     type="text/css"
     id="style2-2">
	.st0{fill:#483737;}
	.st1{fill:#241C1C;}
</style>
  <style
     type="text/css"
     id="style2-8">
	.st0{fill:#483737;}
	.st1{fill:#241C1C;}
</style>
</svg>
