<?xml version="1.0" encoding="UTF-8" standalone="no"?>
<!-- Created with Inkscape (http://www.inkscape.org/) -->

<svg
   width="512"
   height="512"
   viewBox="0 0 135.46666 135.46667"
   version="1.1"
   id="svg5"
   inkscape:version="1.1.1 (3bf5ae0d25, 2021-09-20)"
   sodipodi:docname="Mag Attachment Energy.svg"
   xmlns:inkscape="http://www.inkscape.org/namespaces/inkscape"
   xmlns:sodipodi="http://sodipodi.sourceforge.net/DTD/sodipodi-0.dtd"
   xmlns="http://www.w3.org/2000/svg"
   xmlns:svg="http://www.w3.org/2000/svg">
  <sodipodi:namedview
     id="namedview7"
     pagecolor="#ffffff"
     bordercolor="#666666"
     borderopacity="1.0"
     inkscape:pageshadow="2"
     inkscape:pageopacity="0.0"
     inkscape:pagecheckerboard="0"
     inkscape:document-units="mm"
     showgrid="false"
     units="px"
     width="512px"
     inkscape:zoom="0.45611672"
     inkscape:cx="115.10212"
     inkscape:cy="327.76698"
     inkscape:window-width="1366"
     inkscape:window-height="697"
     inkscape:window-x="-8"
     inkscape:window-y="-8"
     inkscape:window-maximized="1"
     inkscape:current-layer="layer1" />
  <defs
     id="defs2" />
  <g
     inkscape:label="Layer 1"
     inkscape:groupmode="layer"
     id="layer1">
    <rect
       style="fill:#273839;fill-opacity:0.25098041;stroke:#273839;stroke-width:4.73369;stroke-linejoin:round;stroke-opacity:1"
       id="rect846"
       width="124.38298"
       height="124.38298"
       x="5.5418429"
       y="5.5418429"
       ry="9.9077339" />
    <g
       id="g20"
       transform="matrix(2.6603709,0,0,2.6603692,18.516472,18.516503)">
	<path
   class="st0"
   d="m 0.3,27.5 v 4 c 0,0.6 0.5,1.2 1.2,1.2 h 30.6 l 4.6,-4 v -7 c 0,-0.6 -0.5,-1.2 -1.2,-1.2 h -28 l -7.2,7 M 9,24.6 c -0.6,0 -1.1,-0.5 -1.1,-1.1 0,-0.6 0.5,-1.1 1.1,-1.1 0.6,0 1.1,0.5 1.1,1.1 0,0.6 -0.5,1.1 -1.1,1.1 z m 25,0 c -0.6,0 -1.1,-0.5 -1.1,-1.1 0,-0.6 0.5,-1.1 1.1,-1.1 0.6,0 1.1,0.5 1.1,1.1 0,0.6 -0.5,1.1 -1.1,1.1 z"
   id="path4"
   style="fill:#273839;fill-opacity:1" />

	<path
   class="st1"
   d="m 1.5,32.7 h 30.6 l 4.6,-4 V 27.5 H 0.3 v 4 c 0,0.7 0.5,1.2 1.2,1.2 z"
   id="path6"
   style="fill:#4b5354;fill-opacity:1" />

	<path
   class="st0"
   d="M 34.6,9.2 V 4.8 C 34.6,4.5 34.4,4.3 34.1,4.3 H 26.5 L 24.1,6.6 H 4 C 3.7,6.6 3.5,6.8 3.5,7.1 v 10.1 5 c 0,0.1 0.1,0.1 0.1,0.1 L 6.9,19.2 H 7.3 V 10.3 C 7.3,9.4 8,8.7 8.9,8.7 h 0.9 c 0.9,0 1.6,0.7 1.6,1.6 v 8.9 h 2.4 v -8.9 c 0,-0.9 0.7,-1.6 1.6,-1.6 h 0.9 c 0.9,0 1.6,0.7 1.6,1.6 v 8.8 h 2.4 v -8.8 c 0,-0.9 0.7,-1.6 1.6,-1.6 h 0.9 c 0.9,0 1.6,0.7 1.6,1.6 v 8.8 h 2.4 V 7.7 c 0,-0.9 0.7,-1.6 1.6,-1.6 h 0.9 c 0.9,0 1.6,0.7 1.6,1.6 v 11.4 h 3.2 c 0.3,0 0.5,-0.2 0.5,-0.5 v -5.2 c -0.7,-0.3 -1.2,-1.1 -1.2,-2.1 0,-1 0.5,-1.8 1.2,-2.1 z"
   id="path8"
   style="fill:#273839;fill-opacity:1" />

	<g
   id="g18">
		<path
   class="st1"
   d="M 10.5,19.8 H 8.3 C 8.2,19.8 8.1,19.7 8.1,19.6 V 10 C 8.1,9.7 8.3,9.5 8.6,9.5 h 1.5 c 0.3,0 0.5,0.2 0.5,0.5 v 9.6 c 0,0.1 0,0.2 -0.1,0.2 z"
   id="path10"
   style="fill:#4b5354;fill-opacity:1" />

		<path
   class="st1"
   d="m 17,19.8 h -2.2 c -0.1,0 -0.2,-0.1 -0.2,-0.2 V 10 c 0,-0.3 0.2,-0.5 0.5,-0.5 h 1.5 c 0.3,0 0.5,0.2 0.5,0.5 v 9.6 c 0,0.1 0,0.2 -0.1,0.2 z"
   id="path12"
   style="fill:#4b5354;fill-opacity:1" />

		<path
   class="st1"
   d="m 23.5,19.8 h -2.2 c -0.1,0 -0.2,-0.1 -0.2,-0.2 V 10 c 0,-0.3 0.2,-0.5 0.5,-0.5 h 1.5 c 0.3,0 0.5,0.2 0.5,0.5 v 9.6 c 0,0.1 0,0.2 -0.1,0.2 z"
   id="path14"
   style="fill:#4b5354;fill-opacity:1" />

		<path
   class="st1"
   d="m 30,19.8 h -2.2 c -0.1,0 -0.2,-0.1 -0.2,-0.2 V 7.4 c 0,-0.3 0.2,-0.5 0.5,-0.5 h 1.5 c 0.3,0 0.5,0.2 0.5,0.5 v 12.2 c 0,0.1 0,0.2 -0.1,0.2 z"
   id="path16"
   style="fill:#4b5354;fill-opacity:1" />

	</g>

</g>
  </g>
  <style
     type="text/css"
     id="style2">
	.st0{fill:#241C1C;}
	.st1{fill:#483737;}
</style>
</svg>
